<svg xmlns="http://www.w3.org/2000/svg" xmlns:xlink="http://www.w3.org/1999/xlink" id="Layer_1" x="0" y="0" version="1.1" viewBox="0 0 64 64" style="enable-background:new 0 0 64 64" xml:space="preserve"><style type="text/css">.st0{fill:#e0e0d1}.st1{opacity:.2}.st2{fill:#231f20}.st3{fill:#4f5d73}</style><circle cx="32" cy="32" r="32" class="st0"/><g class="st1"><path d="M19,13.8c-4.5,2.9-7.9,7.2-9.7,12.3l9.7,9.7V13.8z" class="st2"/></g><g class="st1"><path d="M8.4,29.5C8.1,31,8,32.5,8,34c0,3.6,0.8,7,2.2,10h12.7L8.4,29.5z" class="st2"/></g><g class="st1"><path d="M27.5,57.6c1.5,0.3,3,0.4,4.5,0.4c3.6,0,7-0.8,10-2.2V43.1L27.5,57.6z" class="st2"/></g><g class="st1"><path d="M11.8,47c2.9,4.5,7.2,7.9,12.3,9.7l9.7-9.7H11.8z" class="st2"/></g><g class="st1"><path d="M55.6,38.5c0.3-1.5,0.4-3,0.4-4.5c0-3.6-0.8-7-2.2-10H41.1L55.6,38.5z" class="st2"/></g><g class="st1"><path d="M45,54.2c4.5-2.9,7.9-7.2,9.7-12.3L45,32.2V54.2z" class="st2"/></g><g class="st1"><path d="M52.2,21c-2.9-4.5-7.2-7.9-12.3-9.7L30.2,21H52.2z" class="st2"/></g><g class="st1"><path d="M36.5,10.4C35,10.1,33.5,10,32,10c-3.6,0-7,0.8-10,2.2v12.7L36.5,10.4z" class="st2"/></g><g><g><path d="M19,11.8c-4.5,2.9-7.9,7.2-9.7,12.3l9.7,9.7V11.8z" class="st3"/></g><g><path d="M8.4,27.5C8.1,29,8,30.5,8,32c0,3.6,0.8,7,2.2,10h12.7L8.4,27.5z" class="st3"/></g><g><path d="M27.5,55.6c1.5,0.3,3,0.4,4.5,0.4c3.6,0,7-0.8,10-2.2V41.1L27.5,55.6z" class="st3"/></g><g><path d="M11.8,45c2.9,4.5,7.2,7.9,12.3,9.7l9.7-9.7H11.8z" class="st3"/></g><g><path d="M55.6,36.5c0.3-1.5,0.4-3,0.4-4.5c0-3.6-0.8-7-2.2-10H41.1L55.6,36.5z" class="st3"/></g><g><path d="M45,52.2c4.5-2.9,7.9-7.2,9.7-12.3L45,30.2V52.2z" class="st3"/></g><g><path d="M52.2,19c-2.9-4.5-7.2-7.9-12.3-9.7L30.2,19H52.2z" class="st3"/></g><g><path d="M36.5,8.4C35,8.1,33.5,8,32,8c-3.6,0-7,0.8-10,2.2v12.7L36.5,8.4z" class="st3"/></g></g></svg>