<svg xmlns="http://www.w3.org/2000/svg" xmlns:xlink="http://www.w3.org/1999/xlink" x="0" y="0" version="1.1" viewBox="0 0 64 64" style="enable-background:new 0 0 64 64" xml:space="preserve"><style type="text/css">.st0{fill:#76c2af}.st1{opacity:.2}.st2{fill:#231f20}.st3{fill:#fff}</style><g id="Layer_1"><g><circle cx="32" cy="32" r="32" class="st0"/></g><g class="st1"><path d="M47.8,30H40V18c0-2.2-1.8-4-4-4h-8c-2.2,0-4,1.8-4,4v12h-7.8c-2.7,0-3.5,1.9-1.7,4.1l14.3,18.1 c1.8,2.3,4.7,2.3,6.5,0l14.3-18.1C51.3,31.9,50.6,30,47.8,30z" class="st2"/></g><g><path d="M24,16c0-2.2,1.8-4,4-4h8c2.2,0,4,1.8,4,4v24c0,2.2-1.8,4-4,4h-8c-2.2,0-4-1.8-4-4V16z" class="st3"/></g><g><path d="M47.8,28c2.7,0,3.5,1.9,1.7,4.1L35.3,50.3c-1.8,2.3-4.7,2.3-6.5,0L14.5,32.1c-1.8-2.3-1-4.1,1.7-4.1H47.8z" class="st3"/></g></g></svg>