<svg xmlns="http://www.w3.org/2000/svg" xmlns:xlink="http://www.w3.org/1999/xlink" x="0" y="0" version="1.1" viewBox="0 0 64 64" style="enable-background:new 0 0 64 64" xml:space="preserve"><style type="text/css">.st0{fill:#e0e0d1}.st1{opacity:.2}.st2{fill:#231f20}.st3{fill:#e0995e}.st4{fill:#c75c5c}.st5{fill:#f5cf87}.st6{fill:#76c2af}.st7{fill:#fff}.st8{fill:#4f5d73}</style><g id="Layer_1"><g><circle cx="31.8" cy="32" r="32" class="st0"/></g><g class="st1"><path d="M32,12c-8.5,0-18,5.4-21.1,15.7c-1.6,5.2,5.2,3.1,5.6,9.2c0.4,4.9-1.1,6.6-1.4,9.6c-0.4,4,8.9,10,17.2,9.6 C44.6,55.4,54,46.3,54,34S44.3,12,32,12z M24,48c-2.2,0-4-1.8-4-4c0-2.2,1.8-4,4-4s4,1.8,4,4C28,46.2,26.2,48,24,48z" class="st2"/></g><g><path d="M32,10c-8.5,0-18,5.4-21.1,15.7c-1.6,5.2,5.2,3.1,5.6,9.2c0.4,4.9-1.1,6.6-1.4,9.6c-0.4,4,8.9,10,17.2,9.6 C44.6,53.4,54,44.3,54,32S44.3,10,32,10z M24,46c-2.2,0-4-1.8-4-4c0-2.2,1.8-4,4-4s4,1.8,4,4C28,44.2,26.2,46,24,46z" class="st3"/></g><g class="st1"><circle cx="20.7" cy="25" r="4" class="st2"/></g><g class="st1"><circle cx="32" cy="19.6" r="4" class="st2"/></g><g class="st1"><circle cx="43.2" cy="24.7" r="4" class="st2"/></g><g class="st1"><circle cx="46.2" cy="37.3" r="4" class="st2"/></g><g class="st1"><circle cx="37.1" cy="47.1" r="4" class="st2"/></g><g><circle cx="20.7" cy="23" r="4" class="st4"/></g><g><circle cx="32" cy="17.6" r="4" class="st5"/></g><g><circle cx="43.2" cy="22.7" r="4" class="st6"/></g><g><circle cx="46.2" cy="35.3" r="4" class="st7"/></g><g><circle cx="37.1" cy="45.1" r="4" class="st8"/></g></g></svg>