<svg xmlns="http://www.w3.org/2000/svg" xmlns:xlink="http://www.w3.org/1999/xlink" x="0" y="0" version="1.1" viewBox="0 0 64 64" style="enable-background:new 0 0 64 64" xml:space="preserve"><style type="text/css">.st0{fill:#4f5d73}.st1{opacity:.2}.st2{fill:#231f20}.st3{fill:#e0e0d1}.st4{fill:#76c2af}.st5{fill:#fff}</style><g id="Layer_1"><g><circle cx="32" cy="32" r="32" class="st0"/></g><g class="st1"><g><path d="M18,28h-4c-2.2,0-4,1.8-4,4v13c0,2.2,1.8,4,4,4h8V32C22,29.8,20.2,28,18,28z" class="st2"/></g><g><path d="M34,13h-4c-2.2,0-4,1.8-4,4v32h12V17C38,14.8,36.2,13,34,13z" class="st2"/></g><g><path d="M50,33h-4c-2.2,0-4,1.8-4,4v12h8c2.2,0,4-1.8,4-4v-8C54,34.8,52.2,33,50,33z" class="st2"/></g></g><g><g><path d="M18,26h-4c-2.2,0-4,1.8-4,4v13c0,2.2,1.8,4,4,4h8V30C22,27.8,20.2,26,18,26z" class="st3"/></g><g><path d="M34,11h-4c-2.2,0-4,1.8-4,4v32h12V15C38,12.8,36.2,11,34,11z" class="st4"/></g><g><path d="M50,31h-4c-2.2,0-4,1.8-4,4v12h8c2.2,0,4-1.8,4-4v-8C54,32.8,52.2,31,50,31z" class="st5"/></g></g></g></svg>