<svg xmlns="http://www.w3.org/2000/svg" xmlns:xlink="http://www.w3.org/1999/xlink" id="Layer_1" x="0" y="0" version="1.1" viewBox="0 0 64 64" style="enable-background:new 0 0 64 64" xml:space="preserve"><style type="text/css">.st0{fill:#e0995e}.st1{opacity:.2}.st2{fill:#231f20}.st3{fill:#4f5d73}.st4{fill:#fff}.st5{fill:#c75c5c}</style><circle cx="32" cy="32" r="32" class="st0"/><g class="st1"><path d="M50,28h-2v12h2c1.1,0,2-0.9,2-2v-8C52,28.9,51.1,28,50,28z" class="st2"/><g><path d="M48,25c0-1.1-0.9-2-2-2H14c-1.1,0-2,0.9-2,2v5v8v5c0,1.1,0.9,2,2,2h32c1.1,0,2-0.9,2-2v-3V28V25z M45,42H15 V26h30V42z" class="st2"/></g><rect width="26" height="12" x="17" y="28" class="st2"/></g><g><path d="M50,26h-2v12h2c1.1,0,2-0.9,2-2v-8C52,26.9,51.1,26,50,26z" class="st3"/><g><rect width="30" height="16" x="15" y="24" class="st4"/><g><path d="M46,21H14c-1.1,0-2,0.9-2,2v5v8v5c0,1.1,0.9,2,2,2h32c1.1,0,2-0.9,2-2v-3V26v-3C48,21.9,47.1,21,46,21z M45,40H15V24h30V40z" class="st3"/></g></g><rect width="11" height="12" x="17" y="26" class="st5"/></g></svg>