<svg xmlns="http://www.w3.org/2000/svg" xmlns:xlink="http://www.w3.org/1999/xlink" x="0" y="0" version="1.1" viewBox="0 0 64 64" style="enable-background:new 0 0 64 64" xml:space="preserve"><style type="text/css">.st0{fill:#e0995e}.st1{opacity:.2}.st2{fill:#231f20}.st3{fill:#e0e0d1}.st4{fill:#4f5d73}.st5{fill:#c75c5c}.st6{fill:#f5cf87}</style><g id="Layer_1"><g><circle cx="31.8" cy="33" r="32" class="st0"/></g><g class="st1"><g><path d="M37.6,28.1c-0.2,0-0.5-0.1-0.7-0.3c-0.4-0.4-0.4-1,0-1.4c0.3-0.3,6.9-7.2,10.6-9.1c0.5-0.2,1.1-0.1,1.3,0.4 s0.1,1.1-0.4,1.3c-3.5,1.8-10,8.7-10.1,8.7C38.1,28,37.8,28.1,37.6,28.1z" class="st2"/></g></g><g><path d="M37.6,25.1c0,0,6.7-7.1,10.4-8.9" class="st3"/><path d="M37.6,26.1c-0.2,0-0.5-0.1-0.7-0.3c-0.4-0.4-0.4-1,0-1.4c0.3-0.3,6.9-7.2,10.6-9.1c0.5-0.2,1.1-0.1,1.3,0.4 c0.2,0.5,0.1,1.1-0.4,1.3c-3.5,1.8-10,8.7-10.1,8.7C38.1,26,37.8,26.1,37.6,26.1z" class="st3"/></g><g class="st1"><circle cx="28" cy="38" r="16" class="st2"/></g><g class="st1"><path d="M38.9,34.1c-1.1,1.2-2.7,1.6-3.5,0.9l-5-4.6c-0.8-0.8-0.6-2.4,0.5-3.6l4-4.4c1.1-1.2,2.7-1.6,3.5-0.9l5,4.6 c0.8,0.8,0.6,2.4-0.5,3.6L38.9,34.1z" class="st2"/></g><g><circle cx="28" cy="36" r="16" class="st4"/></g><g><path d="M38.9,32.1c-1.1,1.2-2.7,1.6-3.5,0.9l-5-4.6c-0.8-0.8-0.6-2.4,0.5-3.6l4-4.4c1.1-1.2,2.7-1.6,3.5-0.9l5,4.6 c0.8,0.8,0.6,2.4-0.5,3.6L38.9,32.1z" class="st4"/></g><g class="st1"><circle cx="47" cy="18" r="4" class="st2"/></g><g><circle cx="47" cy="17" r="4" class="st5"/></g><g><circle cx="47" cy="17" r="2" class="st6"/></g></g></svg>