<svg xmlns="http://www.w3.org/2000/svg" xmlns:xlink="http://www.w3.org/1999/xlink" x="0" y="0" version="1.1" viewBox="0 0 64 64" style="enable-background:new 0 0 64 64" xml:space="preserve"><style type="text/css">.st0{fill:#77b3d4}.st1{opacity:.2}.st2{fill:#231f20}.st3{fill:#4f5d73}.st4{fill:#c75c5c}.st5{fill:#e0e0d1}</style><g id="Layer_1"><g><circle cx="32" cy="32" r="32" class="st0"/></g><g class="st1"><path d="M48,50c0,2.2-1.8,4-4,4H20c-2.2,0-4-1.8-4-4V18c0-2.2,1.8-4,4-4h24c2.2,0,4,1.8,4,4V50z" class="st2"/></g><g><path d="M48,48c0,2.2-1.8,4-4,4H20c-2.2,0-4-1.8-4-4V16c0-2.2,1.8-4,4-4h24c2.2,0,4,1.8,4,4V48z" class="st3"/></g><g class="st1"><g><path d="M35,14v7.8c0,0.3,0.2,0.5,0.4,0.6c0.1,0,0.2,0,0.3,0c0.2,0,0.3-0.1,0.5-0.2l2.9-2.8l2.9,2.8 c0.1,0.1,0.3,0.2,0.5,0.2c0.1,0,0.2,0,0.3,0c0.2-0.1,0.4-0.3,0.4-0.6V14H35z" class="st2"/></g></g><g><g><path d="M35,12v7.8c0,0.3,0.2,0.5,0.4,0.6c0.1,0,0.2,0,0.3,0c0.2,0,0.3-0.1,0.5-0.2l2.9-2.8l2.9,2.8 c0.1,0.1,0.3,0.2,0.5,0.2c0.1,0,0.2,0,0.3,0c0.2-0.1,0.4-0.3,0.4-0.6V12H35z" class="st4"/></g></g><g><rect width="3" height="40" x="20" y="12" class="st5"/></g></g></svg>