<svg xmlns="http://www.w3.org/2000/svg" xmlns:xlink="http://www.w3.org/1999/xlink" x="0" y="0" version="1.1" viewBox="0 0 64 64" style="enable-background:new 0 0 64 64" xml:space="preserve"><style type="text/css">.st0{fill:#4f5d73}.st1{opacity:.2}.st2{fill:#231f20}.st3{fill:#e0995e}.st4{fill:#f5cf87}</style><g id="Layer_1"><g><circle cx="32" cy="32" r="32" class="st0"/></g><g class="st1"><path d="M52,45c0,2.2-1.8,4-4,4H16c-2.2,0-4-1.8-4-4V25c0-2.2,1.8-4,4-4h32c2.2,0,4,1.8,4,4V45z" class="st2"/></g><g><path d="M38,16v20H26V16H38 M38,12H26c-2.2,0-4,1.8-4,4v20c0,2.2,1.8,4,4,4h12c2.2,0,4-1.8,4-4V16 C42,13.8,40.2,12,38,12L38,12z" class="st3"/></g><g><g><path d="M12,28v15c0,2.2,1.8,4,4,4h32c2.2,0,4-1.8,4-4V28H12z" class="st3"/></g></g><g class="st1"><path d="M52,25c0-2.2-1.8-4-4-4H16c-2.2,0-4,1.8-4,4v5h40V25z" class="st2"/></g><g class="st1"><g><path d="M40,32c0,2.2-1.8,4-4,4h-8c-2.2,0-4-1.8-4-4v-3c0-2.2,1.8-4,4-4h8c2.2,0,4,1.8,4,4V32z" class="st2"/></g></g><g><path d="M36,27v3h-8v-3H36 M36,23h-8c-2.2,0-4,1.8-4,4v3c0,2.2,1.8,4,4,4h8c2.2,0,4-1.8,4-4v-3C40,24.8,38.2,23,36,23 L36,23z" class="st4"/></g><g><path d="M52,23c0-2.2-1.8-4-4-4H16c-2.2,0-4,1.8-4,4v5h40V23z" class="st3"/></g></g></svg>