<svg xmlns="http://www.w3.org/2000/svg" xmlns:xlink="http://www.w3.org/1999/xlink" id="Layer_1" x="0" y="0" version="1.1" viewBox="0 0 64 64" style="enable-background:new 0 0 64 64" xml:space="preserve"><style type="text/css">.st0{fill:#c75c5c}.st1{opacity:.2}.st2{fill:#231f20}.st3{fill:#e0e0d1}.st4{fill:#fff}.st5{opacity:.2;fill:#231f20}</style><circle cx="32" cy="32" r="32" class="st0"/><g class="st1"><path d="M25,43.3v7.9c0,0.5,0.6,1.3,1,1.5l5.3,3c0.4,0.2,1.1,0.2,1.5,0l5.3-3c0.4-0.2,1-1.1,1-1.5v-7.9 c-2.1,1.1-4.5,1.7-7,1.7C29.5,45,27.1,44.4,25,43.3z" class="st2"/></g><g><path d="M25,41.3v7.9c0,0.5,0.6,1.3,1,1.5l5.3,3c0.4,0.2,1.1,0.2,1.5,0l5.3-3c0.4-0.2,1-1.1,1-1.5v-7.9 c-2.1,1.1-4.5,1.7-7,1.7C29.5,43,27.1,42.4,25,41.3z" class="st3"/></g><g class="st1"><circle cx="32" cy="34.6" r="14.4" class="st2"/></g><g><circle cx="32" cy="32" r="14.4" class="st4"/></g><g><path d="M33.5,15.5c0,0.8-0.7,1.5-1.5,1.5l0,0c-0.8,0-1.5-0.7-1.5-1.5v-2c0-0.8,0.7-1.5,1.5-1.5l0,0 c0.8,0,1.5,0.7,1.5,1.5V15.5z" class="st5"/><path d="M50.5,35.5c-0.8,0-1.5-0.7-1.5-1.5l0,0c0-0.8,0.7-1.5,1.5-1.5h2c0.8,0,1.5,0.7,1.5,1.5l0,0 c0,0.8-0.7,1.5-1.5,1.5H50.5z" class="st5"/><path d="M13.5,32.5c0.8,0,1.5,0.7,1.5,1.5l0,0c0,0.8-0.7,1.5-1.5,1.5h-2c-0.8,0-1.5-0.7-1.5-1.5l0,0 c0-0.8,0.7-1.5,1.5-1.5H13.5z" class="st5"/><path d="M24,17.2c0.4,0.7,0.2,1.6-0.5,2l0,0c-0.7,0.4-1.6,0.2-2-0.5l-1-1.7c-0.4-0.7-0.2-1.6,0.5-2l0,0 c0.7-0.4,1.6-0.2,2,0.5L24,17.2z" class="st5"/><path d="M48.8,26c-0.7,0.4-1.6,0.2-2-0.5l0,0c-0.4-0.7-0.2-1.6,0.5-2l1.7-1c0.7-0.4,1.6-0.2,2,0.5l0,0 c0.4,0.7,0.2,1.6-0.5,2L48.8,26z" class="st5"/><path d="M15.2,42c0.7-0.4,1.6-0.2,2,0.5l0,0c0.4,0.7,0.2,1.6-0.5,2l-1.7,1c-0.7,0.4-1.6,0.2-2-0.5l0,0 c-0.4-0.7-0.2-1.6,0.5-2L15.2,42z" class="st5"/><path d="M16.7,23.5c0.7,0.4,1,1.3,0.5,2l0,0c-0.4,0.7-1.3,1-2,0.5l-1.7-1c-0.7-0.4-1-1.3-0.5-2l0,0 c0.4-0.7,1.3-1,2-0.5L16.7,23.5z" class="st5"/><path d="M47.3,44.5c-0.7-0.4-1-1.3-0.5-2l0,0c0.4-0.7,1.3-1,2-0.5l1.7,1c0.7,0.4,1,1.3,0.5,2l0,0c-0.4,0.7-1.3,1-2,0.5 L47.3,44.5z" class="st5"/><path d="M42.5,18.7c-0.4,0.7-1.3,1-2,0.5l0,0c-0.7-0.4-1-1.3-0.5-2l1-1.7c0.4-0.7,1.3-1,2-0.5l0,0c0.7,0.4,1,1.3,0.5,2 L42.5,18.7z" class="st5"/></g><g><circle cx="32" cy="32" r="14.4" class="st4"/></g><g><path d="M33.5,13.5c0,0.8-0.7,1.5-1.5,1.5l0,0c-0.8,0-1.5-0.7-1.5-1.5v-2c0-0.8,0.7-1.5,1.5-1.5l0,0 c0.8,0,1.5,0.7,1.5,1.5V13.5z" class="st3"/><path d="M50.5,33.5c-0.8,0-1.5-0.7-1.5-1.5l0,0c0-0.8,0.7-1.5,1.5-1.5h2c0.8,0,1.5,0.7,1.5,1.5l0,0 c0,0.8-0.7,1.5-1.5,1.5H50.5z" class="st3"/><path d="M13.5,30.5c0.8,0,1.5,0.7,1.5,1.5l0,0c0,0.8-0.7,1.5-1.5,1.5h-2c-0.8,0-1.5-0.7-1.5-1.5l0,0 c0-0.8,0.7-1.5,1.5-1.5H13.5z" class="st3"/><path d="M24,15.2c0.4,0.7,0.2,1.6-0.5,2l0,0c-0.7,0.4-1.6,0.2-2-0.5l-1-1.7c-0.4-0.7-0.2-1.6,0.5-2l0,0 c0.7-0.4,1.6-0.2,2,0.5L24,15.2z" class="st3"/><path d="M48.8,24c-0.7,0.4-1.6,0.2-2-0.5l0,0c-0.4-0.7-0.2-1.6,0.5-2l1.7-1c0.7-0.4,1.6-0.2,2,0.5l0,0 c0.4,0.7,0.2,1.6-0.5,2L48.8,24z" class="st3"/><path d="M15.2,40c0.7-0.4,1.6-0.2,2,0.5l0,0c0.4,0.7,0.2,1.6-0.5,2l-1.7,1c-0.7,0.4-1.6,0.2-2-0.5l0,0 c-0.4-0.7-0.2-1.6,0.5-2L15.2,40z" class="st3"/><path d="M16.7,21.5c0.7,0.4,1,1.3,0.5,2l0,0c-0.4,0.7-1.3,1-2,0.5l-1.7-1c-0.7-0.4-1-1.3-0.5-2l0,0 c0.4-0.7,1.3-1,2-0.5L16.7,21.5z" class="st3"/><path d="M47.3,42.5c-0.7-0.4-1-1.3-0.5-2l0,0c0.4-0.7,1.3-1,2-0.5l1.7,1c0.7,0.4,1,1.3,0.5,2l0,0c-0.4,0.7-1.3,1-2,0.5 L47.3,42.5z" class="st3"/><path d="M42.5,16.7c-0.4,0.7-1.3,1-2,0.5l0,0c-0.7-0.4-1-1.3-0.5-2l1-1.7c0.4-0.7,1.3-1,2-0.5l0,0c0.7,0.4,1,1.3,0.5,2 L42.5,16.7z" class="st3"/></g></svg>