<svg xmlns="http://www.w3.org/2000/svg" xmlns:xlink="http://www.w3.org/1999/xlink" x="0" y="0" version="1.1" viewBox="0 0 64 64" style="enable-background:new 0 0 64 64" xml:space="preserve"><style type="text/css">.st0{fill:#77b3d4}.st1{opacity:.2}.st2{fill:#231f20}.st3{fill:#fff}.st4{fill:#e0e0d1}.st5{fill:#e0995e}.st6{fill:#76c2af}.st7{fill:#c75c5c}.st8{fill:#4f5d73}</style><g id="Layer_1"><g><circle cx="32" cy="32" r="32" class="st0"/></g><g class="st1"><path d="M52,48c0,2.2-1.8,4-4,4H16c-2.2,0-4-1.8-4-4V18c0-2.2,1.8-4,4-4h32c2.2,0,4,1.8,4,4V48z" class="st2"/></g><g><path d="M12,21.5V46c0,2.2,1.8,4,4,4h32c2.2,0,4-1.8,4-4V21.5H12z" class="st3"/></g><g class="st1"><path d="M52,18c0-2.2-1.8-4-4-4H16c-2.2,0-4,1.8-4,4v6h40V18z" class="st2"/></g><g><path d="M52,16c0-2.2-1.8-4-4-4H16c-2.2,0-4,1.8-4,4v6h40V16z" class="st4"/></g><g><circle cx="23" cy="17" r="2" class="st5"/></g><g><circle cx="29" cy="17" r="2" class="st6"/></g><g><circle cx="17" cy="17" r="2" class="st7"/></g><g><rect width="12" height="18" x="16" y="28" class="st8"/></g><g><rect width="16" height="2" x="32" y="28" class="st4"/></g><g><rect width="16" height="2" x="32" y="32" class="st4"/></g><g><rect width="16" height="2" x="32" y="36" class="st4"/></g><g><rect width="16" height="2" x="32" y="40" class="st4"/></g><g><rect width="16" height="2" x="32" y="44" class="st4"/></g></g></svg>