<svg xmlns="http://www.w3.org/2000/svg" xmlns:xlink="http://www.w3.org/1999/xlink" x="0" y="0" version="1.1" viewBox="0 0 64 64" style="enable-background:new 0 0 64 64" xml:space="preserve"><style type="text/css">.st0{fill:#4f5d73}.st1{opacity:.2}.st2{fill:#231f20}.st3{fill:#e0e0d1}.st4{fill:#f5cf87}.st5{fill:#e0995e}.st6{fill:#76c2af}</style><g id="Layer_1"><g><circle cx="31.8" cy="32" r="32" class="st0"/></g><g class="st1"><g><circle cx="44" cy="39" r="2" class="st2"/></g><g><circle cx="44" cy="51" r="2" class="st2"/></g><g><path d="M26,22h-4v-4c0-1.1-0.9-2-2-2s-2,0.9-2,2v4h-4c-1.1,0-2,0.9-2,2c0,1.1,0.9,2,2,2h4v4c0,1.1,0.9,2,2,2 s2-0.9,2-2v-4h4c1.1,0,2-0.9,2-2C28,22.9,27.1,22,26,22z" class="st2"/></g><g><path d="M38,26h12c1.1,0,2-0.9,2-2c0-1.1-0.9-2-2-2H38c-1.1,0-2,0.9-2,2C36,25.1,36.9,26,38,26z" class="st2"/></g><g><path d="M50,43H38c-1.1,0-2,0.9-2,2c0,1.1,0.9,2,2,2h12c1.1,0,2-0.9,2-2C52,43.9,51.1,43,50,43z" class="st2"/></g><g><path d="M26.8,39.2c-0.8-0.8-2-0.8-2.8,0l-4,4l-4-4c-0.8-0.8-2-0.8-2.8,0c-0.8,0.8-0.8,2,0,2.8l4,4l-4,4 c-0.8,0.8-0.8,2,0,2.8s2,0.8,2.8,0l4-4l4,4c0.8,0.8,2,0.8,2.8,0s0.8-2,0-2.8l-4-4l4-4C27.6,41.2,27.6,40,26.8,39.2z" class="st2"/></g></g><g><circle cx="44" cy="37" r="2" class="st3"/></g><g><circle cx="44" cy="49" r="2" class="st3"/></g><g><path d="M28,22c0,1.1-0.9,2-2,2H14c-1.1,0-2-0.9-2-2l0,0c0-1.1,0.9-2,2-2h12C27.1,20,28,20.9,28,22L28,22z" class="st4"/></g><g><path d="M52,22c0,1.1-0.9,2-2,2H38c-1.1,0-2-0.9-2-2l0,0c0-1.1,0.9-2,2-2h12C51.1,20,52,20.9,52,22L52,22z" class="st5"/></g><g><path d="M20,30c-1.1,0-2-0.9-2-2V16c0-1.1,0.9-2,2-2l0,0c1.1,0,2,0.9,2,2v12C22,29.1,21.1,30,20,30L20,30z" class="st4"/></g><g><path d="M52,43c0,1.1-0.9,2-2,2H38c-1.1,0-2-0.9-2-2l0,0c0-1.1,0.9-2,2-2h12C51.1,41,52,41.9,52,43L52,43z" class="st3"/></g><g><path d="M26.8,50.8c-0.8,0.8-2,0.8-2.8,0L13.2,40c-0.8-0.8-0.8-2,0-2.8l0,0c0.8-0.8,2-0.8,2.8,0L26.8,48 C27.6,48.8,27.6,50,26.8,50.8L26.8,50.8z" class="st6"/></g><g><path d="M13.2,50.8c-0.8-0.8-0.8-2,0-2.8L24,37.2c0.8-0.8,2-0.8,2.8,0l0,0c0.8,0.8,0.8,2,0,2.8L16,50.8 C15.2,51.6,14,51.6,13.2,50.8L13.2,50.8z" class="st6"/></g></g></svg>