<svg xmlns="http://www.w3.org/2000/svg" xmlns:xlink="http://www.w3.org/1999/xlink" id="Layer_1" x="0" y="0" version="1.1" viewBox="0 0 64 64" style="enable-background:new 0 0 64 64" xml:space="preserve"><style type="text/css">.st0{display:none;fill:#2b3544}.st1{fill:#f5cf87}.st2{fill:#e0e0d1}.st3{opacity:.2;fill:#231f20}.st4{fill:#4f5d73}.st5{fill:#c75c5c}</style><rect width="608" height="1984" x="-307" y="-1345" class="st0"/><circle cx="32" cy="32" r="32" class="st1"/><g><circle cx="32" cy="32" r="22" class="st2"/></g><path d="M32,19c8.3,0,15,6.7,15,15s-6.7,15-15,15s-15-6.7-15-15S23.7,19,32,19 M32,12c-12.2,0-22,9.8-22,22	s9.8,22,22,22s22-9.8,22-22S44.2,12,32,12L32,12z" class="st3"/><g><path d="M32,17c8.3,0,15,6.7,15,15s-6.7,15-15,15s-15-6.7-15-15S23.7,17,32,17 M32,10c-12.2,0-22,9.8-22,22 s9.8,22,22,22s22-9.8,22-22S44.2,10,32,10L32,10z" class="st4"/></g><circle cx="42" cy="31" r="2" class="st3"/><circle cx="32" cy="23" r="2" class="st3"/><circle cx="22" cy="31" r="2" class="st3"/><circle cx="26" cy="42" r="2" class="st3"/><circle cx="38" cy="42" r="2" class="st3"/><circle cx="42" cy="30" r="2" class="st5"/><circle cx="32" cy="22" r="2" class="st5"/><circle cx="32" cy="34" r="5" class="st3"/><circle cx="32" cy="32" r="5" class="st4"/><circle cx="22" cy="30" r="2" class="st5"/><circle cx="26" cy="41" r="2" class="st5"/><circle cx="38" cy="41" r="2" class="st5"/></svg>