<svg xmlns="http://www.w3.org/2000/svg" xmlns:xlink="http://www.w3.org/1999/xlink" x="0" y="0" version="1.1" viewBox="0 0 64 64" style="enable-background:new 0 0 64 64" xml:space="preserve"><style type="text/css">.st0{fill:#77b3d4}.st1{opacity:.2}.st2{fill:#231f20}.st3{fill:#fff}.st4{fill:#4f5d73}</style><g id="Layer_1"><g><circle cx="32" cy="32" r="32" class="st0"/></g><g class="st1"><path d="M52,32c0-9.9-9-18-20-18s-20,8.1-20,18c0,9.6,8.3,17.4,18.8,17.9C31.5,53.6,32,56,32,56s5-3,9.6-8.2 C47.8,44.7,52,38.8,52,32z" class="st2"/></g><g><path d="M49,28.8C49,43.8,32,54,32,54s-9.4-42,0-42S49,19.5,49,28.8z" class="st3"/></g><g><ellipse cx="32" cy="30" class="st3" rx="20" ry="18"/></g><g><circle cx="32" cy="30" r="2" class="st4"/></g><g><circle cx="40" cy="30" r="2" class="st4"/></g><g><circle cx="24" cy="30" r="2" class="st4"/></g></g></svg>