<svg xmlns="http://www.w3.org/2000/svg" xmlns:xlink="http://www.w3.org/1999/xlink" id="Layer_1" x="0" y="0" version="1.1" viewBox="0 0 64 64" style="enable-background:new 0 0 64 64" xml:space="preserve"><style type="text/css">.st0{fill:#c75c5c}.st1,.st2{fill:none;stroke:#e0e0d1;stroke-width:4;stroke-linecap:round;stroke-miterlimit:10}.st2{stroke-linejoin:round}.st3{opacity:.2}.st4{fill:#231f20}.st5{fill:none;stroke:#e0e0d1;stroke-width:4;stroke-miterlimit:10}</style><circle cx="32" cy="32" r="32" class="st0"/><path d="M44.2,34.3c-6.3,7.5-18.2,7.5-24.5,0" class="st1"/><line x1="32" x2="32" y1="17" y2="12" class="st2"/><g class="st3"><path d="M47.8,51.1l-12-22.3c-1.4,1.2-3,1.7-5,0.7c-0.7-0.3-1.5-0.8-2.2-1.3L16.2,51.1c-0.5,1-0.2,2.2,0.8,2.7 c1,0.5,2.2,0.2,2.7-0.8L32,30.2l12.2,22.7c0.4,0.7,1.1,1.1,1.8,1.1c0.3,0,0.6-0.1,0.9-0.2C47.9,53.2,48.3,52,47.8,51.1z" class="st4"/></g><path d="M35.1,29.8C39.3,37.5,46,50,46,50" class="st2"/><path d="M18,50c0,0,6.8-12.7,11-20.4" class="st2"/><g class="st3"><path d="M32,34c-4.4,0-8-3.6-8-8s3.6-8,8-8c4.4,0,8,3.6,8,8S36.4,34,32,34z M32,22c-2.2,0-4,1.8-4,4s1.8,4,4,4 c2.2,0,4-1.8,4-4S34.2,22,32,22z" class="st4"/></g><circle cx="32" cy="24" r="6" class="st5"/></svg>