<svg xmlns="http://www.w3.org/2000/svg" xmlns:xlink="http://www.w3.org/1999/xlink" x="0" y="0" version="1.1" viewBox="0 0 64 64" style="enable-background:new 0 0 64 64" xml:space="preserve"><style type="text/css">.st0{fill:#77b3d4}.st1{opacity:.2}.st2{fill:#231f20}.st3{fill:#fff}</style><g id="Layer_1"><g><circle cx="32" cy="32" r="32" class="st0"/></g><g class="st1"><path d="M48,32c0-8.8-7.2-16-16-16c-7.5,0-13.8,5.2-15.5,12.1C11.7,28.9,8,33,8,38c0,5.5,4.5,10,10,10h30 c4.4,0,8-3.6,8-8S52.4,32,48,32z" class="st2"/></g><g><path d="M48,30c0-8.8-7.2-16-16-16c-7.5,0-13.8,5.2-15.5,12.1C11.7,26.9,8,31,8,36c0,5.5,4.5,10,10,10h30 c4.4,0,8-3.6,8-8S52.4,30,48,30z" class="st3"/></g></g></svg>