<svg xmlns="http://www.w3.org/2000/svg" xmlns:xlink="http://www.w3.org/1999/xlink" id="Layer_1" x="0" y="0" version="1.1" viewBox="0 0 64 64" style="enable-background:new 0 0 64 64" xml:space="preserve"><style type="text/css">.st0{fill:#4f5d73}.st1{opacity:.2;fill:#231f20}.st2{fill:#c75c5c}.st3{fill:#77b3d4}.st4{fill:#f5cf87}</style><circle cx="32" cy="32" r="32" class="st0"/><path d="M54,40c0,5.5-4.5,10-10,10c-5.5,0-10-4.5-10-10c0-10,10-18,10-18S54,30,54,40z" class="st1"/><path d="M54,38c0,5.5-4.5,10-10,10c-5.5,0-10-4.5-10-10c0-10,10-18,10-18S54,28,54,38z" class="st2"/><path d="M42,32c0,5.5-4.5,10-10,10c-5.5,0-10-4.5-10-10c0-10,10-18,10-18S42,22,42,32z" class="st1"/><path d="M42,30c0,5.5-4.5,10-10,10c-5.5,0-10-4.5-10-10c0-10,10-18,10-18S42,20,42,30z" class="st3"/><path d="M30,40c0,5.5-4.5,10-10,10c-5.5,0-10-4.5-10-10c0-10,10-18,10-18S30,30,30,40z" class="st1"/><path d="M30,38c0,5.5-4.5,10-10,10c-5.5,0-10-4.5-10-10c0-10,10-18,10-18S30,28,30,38z" class="st4"/></svg>