<svg xmlns="http://www.w3.org/2000/svg" xmlns:xlink="http://www.w3.org/1999/xlink" x="0" y="0" version="1.1" viewBox="0 0 64 64" style="enable-background:new 0 0 64 64" xml:space="preserve"><style type="text/css">.st0{fill:#77b3d4}.st1{opacity:.2}.st2{fill:#231f20}.st3{fill:#fff}.st4{fill:#4f5d73}.st5{fill:#e0995e}</style><g id="Layer_1"><g><circle cx="32" cy="32" r="32" class="st0"/></g><g class="st1"><path d="M52,45c0,2.2-1.8,4-4,4H16c-2.2,0-4-1.8-4-4V25c0-2.2,1.8-4,4-4h32c2.2,0,4,1.8,4,4V45z" class="st2"/></g><g><path d="M52,43c0,2.2-1.8,4-4,4H16c-2.2,0-4-1.8-4-4V23c0-2.2,1.8-4,4-4h32c2.2,0,4,1.8,4,4V43z" class="st3"/></g><g><rect width="40" height="6" x="12" y="25" class="st4"/></g><g><circle cx="38" cy="41" r="2" class="st5"/></g><g><circle cx="46" cy="41" r="2" class="st5"/></g><g><circle cx="30" cy="41" r="2" class="st5"/></g></g></svg>