<svg xmlns="http://www.w3.org/2000/svg" xmlns:xlink="http://www.w3.org/1999/xlink" id="Layer_1" x="0" y="0" version="1.1" viewBox="0 0 64 64" style="enable-background:new 0 0 64 64" xml:space="preserve"><style type="text/css">.st0{display:none;fill:#2b3544}.st1{fill:#77b3d4}.st2{opacity:.2}.st3{fill:#231f20}.st4{fill:none;stroke:#f5cf87;stroke-width:4;stroke-linecap:round;stroke-miterlimit:10}.st5{opacity:.2;fill:#231f20}.st6{fill:#4f5d73}.st7{fill:#fff}</style><rect width="608" height="1984" x="-55" y="-1765" class="st0"/><circle cx="32" cy="32" r="32" class="st1"/><g class="st2"><path d="M32,60c-1.1,0-2-0.9-2-2V14c0-1.1,0.9-2,2-2s2,0.9,2,2v44C34,59.1,33.1,60,32,60z" class="st3"/></g><line x1="32" x2="32" y1="12" y2="56" class="st4"/><path d="M18.5,16c-0.4,0-1,0.2-1.3,0.5l-5,4.9c-0.3,0.3-0.3,0.8,0,1.1l5,4.9c0.3,0.3,0.9,0.5,1.3,0.5h20.8	c0.4,0,0.8-0.4,0.8-0.8V16.8c0-0.4-0.3-0.8-0.8-0.8H18.5z" class="st5"/><path d="M49.5,42c0.4,0,1-0.2,1.3-0.5l5-4.9c0.3-0.3,0.3-0.8,0-1.1l-5-4.9c-0.3-0.3-0.9-0.5-1.3-0.5H24.8	c-0.4,0-0.8,0.4-0.8,0.8v10.4c0,0.4,0.3,0.8,0.8,0.8H49.5z" class="st5"/><path d="M18.5,14c-0.4,0-1,0.2-1.3,0.5l-5,4.9c-0.3,0.3-0.3,0.8,0,1.1l5,4.9c0.3,0.3,0.9,0.5,1.3,0.5h20.8	c0.4,0,0.8-0.4,0.8-0.8V14.8c0-0.4-0.3-0.8-0.8-0.8H18.5z" class="st6"/><path d="M49.5,40c0.4,0,1-0.2,1.3-0.5l5-4.9c0.3-0.3,0.3-0.8,0-1.1l-5-4.9c-0.3-0.3-0.9-0.5-1.3-0.5H24.8	c-0.4,0-0.8,0.4-0.8,0.8v10.4c0,0.4,0.3,0.8,0.8,0.8H49.5z" class="st7"/></svg>