<svg xmlns="http://www.w3.org/2000/svg" xmlns:xlink="http://www.w3.org/1999/xlink" x="0" y="0" version="1.1" viewBox="0 0 64 64" style="enable-background:new 0 0 64 64" xml:space="preserve"><style type="text/css">.st0{fill:#c75c5c}.st1{opacity:.2}.st2{fill:#231f20}.st3{fill:#fff}.st4{fill:#8c81d4}</style><g id="Layer_1"><g><circle cx="32" cy="32" r="32" class="st0"/></g><g class="st1"><g><path d="M40,11.2C40,11.2,40,11.1,40,11.2C40,11,40,11,40,11.2z" class="st2"/></g><g><path d="M24,11.1C24,11.1,24,11.2,24,11.1C24,11,24,11,24,11.1z" class="st2"/></g></g><g><g class="st1"><path d="M48,32c0-6.5-3.8-12-9.4-14.5C36.9,16.7,36,18,36,19.1v8.5c0,0.8,0.7,1.4,1.5,1.4h3.1c1.5,0,1.9,1.1,0.9,2.4 l-7.7,9.8c-1,1.2-2.6,1.2-3.5,0l-7.7-9.8c-1-1.2-0.6-2.4,0.9-2.4h3.1c0.8,0,1.5-0.6,1.5-1.4v-8.5c0-1.1-1.5-2.1-2.8-1.6 c0,0,0,0,0,0c-4.3,2-7.6,5.9-8.7,10.6C11.7,28.9,8,33,8,38c0,5.5,4.5,10,10,10h30c4.4,0,8-3.6,8-8S52.4,32,48,32z" class="st2"/></g><g><path d="M48,30c0-6.5-3.8-12-9.4-14.5C36.9,14.7,36,16,36,17.1v8.5c0,0.8,0.7,1.4,1.5,1.4h3.1c1.5,0,1.9,1.1,0.9,2.4 l-7.7,9.8c-1,1.2-2.6,1.2-3.5,0l-7.7-9.8c-1-1.2-0.6-2.4,0.9-2.4h3.1c0.8,0,1.5-0.6,1.5-1.4v-8.5c0-1.1-1.5-2.1-2.8-1.6 c0,0,0,0,0,0c-4.3,2-7.6,5.9-8.7,10.6C11.7,26.9,8,31,8,36c0,5.5,4.5,10,10,10h30c4.4,0,8-3.6,8-8S52.4,30,48,30z" class="st3"/></g><g><path d="M40,9.2C40,9.2,40,9.1,40,9.2C40,9,40,9,40,9.2z" class="st4"/></g><g><path d="M24,9.1C24,9.1,24,9.2,24,9.1C24,9,24,9,24,9.1z" class="st4"/></g></g></g></svg>