<svg xmlns="http://www.w3.org/2000/svg" xmlns:xlink="http://www.w3.org/1999/xlink" id="Layer_1" x="0" y="0" version="1.1" viewBox="0 0 64 64" style="enable-background:new 0 0 64 64" xml:space="preserve"><style type="text/css">.st0{fill:#e0995e}.st1{opacity:.2;fill:#231f20}.st2{fill:#f5cf87}.st3{fill:#4f5d73}</style><circle cx="32" cy="32" r="32" class="st0"/><path d="M50,23H37v22h8c1.1,0,2-0.9,2-2v-6c0,0,0-2,2-2h1c1.1,0,2-0.9,2-2v-8C52,23.9,51.1,23,50,23z" class="st1"/><path d="M36,49c0,1.1-0.9,2-2,2H18c-1.1,0-2-0.9-2-2V21c0-1.1,0.9-2,2-2h16c1.1,0,2,0.9,2,2V49z" class="st1"/><path d="M32,19c0,1.1-0.9,2-2,2h-8c-1.1,0-2-0.9-2-2l0,0c0-1.1,0.9-2,2-2h8C31.1,17,32,17.9,32,19L32,19z" class="st1"/><path d="M50,21H37v22h8c1.1,0,2-0.9,2-2v-6c0,0,0-2,2-2h1c1.1,0,2-0.9,2-2v-8C52,21.9,51.1,21,50,21z" class="st2"/><path d="M36,47c0,1.1-0.9,2-2,2H18c-1.1,0-2-0.9-2-2V19c0-1.1,0.9-2,2-2h16c1.1,0,2,0.9,2,2V47z" class="st3"/><path d="M32,17c0,1.1-0.9,2-2,2h-8c-1.1,0-2-0.9-2-2l0,0c0-1.1,0.9-2,2-2h8C31.1,15,32,15.9,32,17L32,17z" class="st3"/></svg>