<svg xmlns="http://www.w3.org/2000/svg" xmlns:xlink="http://www.w3.org/1999/xlink" id="Layer_1" x="0" y="0" version="1.1" viewBox="0 0 64 64" style="enable-background:new 0 0 64 64" xml:space="preserve"><style type="text/css">.st0{fill:#f5cf87}.st1{fill:#4f5d73}.st2{fill:#fff}.st3{opacity:.2;fill:#231f20}</style><circle cx="32" cy="32" r="32" class="st0"/><path d="M34.5,50c0,1.1-0.9,2-2,2h-12c-1.1,0-2-0.9-2-2V26c0-1.1,0.9-2,2-2h12c1.1,0,2,0.9,2,2V50z" class="st1"/><path d="M31.6,38.2c-0.8,0.8-2,0.8-2.8,0l-8.5-8.5c-0.8-0.8-0.8-2,0-2.8l17-17c0.8-0.8,2-0.8,2.8,0l8.5,8.5	c0.8,0.8,0.8,2,0,2.8L31.6,38.2z" class="st2"/><path d="M27.9,44.9c-0.8,0.8-2,0.8-2.8,0l-8.5-8.5c-0.8-0.8-0.8-2,0-2.8l17-17c0.8-0.8,2-0.8,2.8,0l8.5,8.5	c0.8,0.8,0.8,2,0,2.8L27.9,44.9z" class="st3"/><path d="M27.9,41.9c-0.8,0.8-2,0.8-2.8,0l-8.5-8.5c-0.8-0.8-0.8-2,0-2.8l17-17c0.8-0.8,2-0.8,2.8,0l8.5,8.5	c0.8,0.8,0.8,2,0,2.8L27.9,41.9z" class="st1"/><circle cx="26.5" cy="32.5" r="6.5" class="st3"/><circle cx="26.5" cy="31.8" r="6" class="st1"/></svg>