<svg xmlns="http://www.w3.org/2000/svg" xmlns:xlink="http://www.w3.org/1999/xlink" id="Layer_1" x="0" y="0" version="1.1" viewBox="0 0 64 64" style="enable-background:new 0 0 64 64" xml:space="preserve"><style type="text/css">.st0{fill:#76c2af}.st1{fill:#77b3d4}.st2{opacity:.2;fill:#231f20}.st3{fill:#4f5d73}.st4{fill:#e0e0d1}</style><circle cx="32" cy="32" r="32" class="st0"/><path d="M18,45" class="st1"/><path d="M16,24" class="st1"/><path d="M32,39.8c9.2,0,9.5,3.1,13,6.1c3.5,3.1,10,4.1,10-6.1c0-10.2-4.6-16.3-4.6-16.3S46,16,40,21.9	c-4.3,4.2-11.7,4.2-16,0c-6-5.9-10.4,1.6-10.4,1.6S9,29.6,9,39.8C9,50,15.6,49,19,45.9C22.5,42.9,22.8,39.8,32,39.8z" class="st2"/><path d="M32,36.8c9.2,0,9.5,3.1,13,6.1c3.5,3.1,10,4.1,10-6.1c0-10.2-4.6-16.3-4.6-16.3S46,13,40,18.9	c-4.3,4.2-11.7,4.2-16,0c-6-5.9-10.4,1.6-10.4,1.6S9,26.6,9,36.8C9,47,15.6,46,19,42.9C22.5,39.9,22.8,36.8,32,36.8z" class="st3"/><circle cx="44" cy="34" r="2" class="st4"/><circle cx="48" cy="29" r="2" class="st4"/><path d="M19,35.5c0,0.8-0.7,1.5-1.5,1.5l0,0c-0.8,0-1.5-0.7-1.5-1.5v-7c0-0.8,0.7-1.5,1.5-1.5l0,0	c0.8,0,1.5,0.7,1.5,1.5V35.5z" class="st4"/><path d="M14,33.5c-0.8,0-1.5-0.7-1.5-1.5l0,0c0-0.8,0.7-1.5,1.5-1.5h7c0.8,0,1.5,0.7,1.5,1.5l0,0c0,0.8-0.7,1.5-1.5,1.5	H14z" class="st4"/></svg>