<svg xmlns="http://www.w3.org/2000/svg" xmlns:xlink="http://www.w3.org/1999/xlink" id="Layer_1" x="0" y="0" version="1.1" viewBox="0 0 64 64" style="enable-background:new 0 0 64 64" xml:space="preserve"><style type="text/css">.st0{display:none;fill:#2b3544}.st1{fill:#77b3d4}.st2{opacity:.2}.st3,.st4{fill:#231f20}.st4{opacity:.2}.st5{fill:#4f5d73}.st6{fill:#fff}.st7{fill:#c75c5c}</style><rect width="608" height="1984" x="-307" y="-1513" class="st0"/><circle cx="32" cy="32" r="32" class="st1"/><g class="st2"><ellipse cx="32" cy="30" class="st3" rx="20" ry="20"/></g><path d="M38,55c0,1.7-1.3,3-3,3h-6c-1.7,0-3-1.3-3-3l0,0c0-1.7,1.3-3,3-3h6C36.7,52,38,53.3,38,55L38,55z" class="st4"/><g><ellipse cx="32" cy="28" class="st5" rx="20" ry="20"/></g><g><ellipse cx="32" cy="28" class="st6" rx="16" ry="20"/></g><g><ellipse cx="32" cy="28" class="st5" rx="8" ry="20"/></g><path d="M38,53c0,1.7-1.3,3-3,3h-6c-1.7,0-3-1.3-3-3l0,0c0-1.7,1.3-3,3-3h6C36.7,50,38,51.3,38,53L38,53z" class="st7"/></svg>