<svg xmlns="http://www.w3.org/2000/svg" xmlns:xlink="http://www.w3.org/1999/xlink" x="0" y="0" version="1.1" viewBox="0 0 64 64" style="enable-background:new 0 0 64 64" xml:space="preserve"><style type="text/css">.st0{fill:#e0995e}.st1{opacity:.2}.st2{fill:#231f20}.st3{fill:#77b3d4}.st4{fill:#fff}.st5{fill:#4f5d73}.st6{fill:#f5cf87}</style><g id="Layer_1"><g><circle cx="32" cy="32" r="32" class="st0"/></g><g class="st1"><g><polygon points="48 26 48 18 16 18 16 26 16 50 48 50" class="st2"/></g><g><path d="M48,14H16c-2.2,0-4,1.8-4,4v8v24c0,2.2,1.8,4,4,4h32c2.2,0,4-1.8,4-4V26v-8C52,15.8,50.2,14,48,14z" class="st2"/></g></g><g><g><path d="M16,50c-1.1,0-2-0.9-2-2V16c0-1.1,0.9-2,2-2h32c1.1,0,2,0.9,2,2v32c0,1.1-0.9,2-2,2H16z" class="st3"/></g><g><path d="M48,16v8v24H16V24v-8H48 M48,12H16c-2.2,0-4,1.8-4,4v8v24c0,2.2,1.8,4,4,4h32c2.2,0,4-1.8,4-4V24v-8 C52,13.8,50.2,12,48,12L48,12z" class="st4"/></g></g><g><rect width="32" height="4" x="16" y="44" class="st4"/></g><g><g><path d="M14,44h34.9v-2.9c0,0-1.7-3-3.3-4.8c-1.2-1.4-2.9-1.8-4.5-0.1l-2.8,2.6l-6-7.6c-2.2-2.8-5.9-2.8-8.1,0L14,44 z" class="st5"/></g></g><g><circle cx="40" cy="24" r="3" class="st6"/></g><g><path d="M48,16v8v24H16V24v-8H48 M48,12H16c-2.2,0-4,1.8-4,4v8v24c0,2.2,1.8,4,4,4h32c2.2,0,4-1.8,4-4V24v-8 C52,13.8,50.2,12,48,12L48,12z" class="st4"/></g></g></svg>