<svg xmlns="http://www.w3.org/2000/svg" xmlns:xlink="http://www.w3.org/1999/xlink" id="Layer_1" x="0" y="0" version="1.1" viewBox="0 0 64 64" style="enable-background:new 0 0 64 64" xml:space="preserve"><style type="text/css">.st0{fill:#e0995e}.st1{opacity:.2;fill:#231f20}.st2{fill:#f5cf87}.st3{opacity:.2}.st4{fill:#231f20}.st5{fill:#fff}</style><circle cx="32" cy="32" r="32" class="st0"/><path d="M52,42.9c0,1.1-0.9,2.1-2,2.1H14c-1.1,0-2-0.9-2-2.1V26.1c0-1.1,0.9-2.1,2-2.1h36c1.1,0,2,0.9,2,2.1V42.9z" class="st1"/><path d="M52,40.9c0,1.1-0.9,2.1-2,2.1H14c-1.1,0-2-0.9-2-2.1V24.1c0-1.1,0.9-2.1,2-2.1h36c1.1,0,2,0.9,2,2.1V40.9z" class="st2"/><g class="st3"><path d="M39.9,38H24.1c-0.9,0-1.6,0.7-1.6,1.5s0.7,1.5,1.6,1.5h15.8c0.9,0,1.6-0.7,1.6-1.5S40.8,38,39.9,38z" class="st4"/><circle cx="20" cy="39.5" r="1.5" class="st4"/><circle cx="16" cy="39.5" r="1.5" class="st4"/><circle cx="48" cy="39.5" r="1.5" class="st4"/><circle cx="44" cy="39.5" r="1.5" class="st4"/><path d="M20,33.8h-4c-0.8,0-1.5,0.7-1.5,1.5c0,0.8,0.7,1.5,1.5,1.5h4c0.8,0,1.5-0.7,1.5-1.5 C21.5,34.5,20.8,33.8,20,33.8z" class="st4"/><path d="M48,33.8h-4c-0.8,0-1.5,0.7-1.5,1.5c0,0.8,0.7,1.5,1.5,1.5h4c0.8,0,1.5-0.7,1.5-1.5 C49.5,34.5,48.8,33.8,48,33.8z" class="st4"/><circle cx="20" cy="31.5" r="1.5" class="st4"/><circle cx="16" cy="31.5" r="1.5" class="st4"/><circle cx="48" cy="31.5" r="1.5" class="st4"/><circle cx="44" cy="31.5" r="1.5" class="st4"/><circle cx="20" cy="27.5" r="1.5" class="st4"/><circle cx="16" cy="27.5" r="1.5" class="st4"/><circle cx="28" cy="35.3" r="1.5" class="st4"/><circle cx="24" cy="35.3" r="1.5" class="st4"/><circle cx="28" cy="31.5" r="1.5" class="st4"/><circle cx="24" cy="31.5" r="1.5" class="st4"/><circle cx="28" cy="27.5" r="1.5" class="st4"/><circle cx="24" cy="27.5" r="1.5" class="st4"/><circle cx="36" cy="35.3" r="1.5" class="st4"/><circle cx="32" cy="35.3" r="1.5" class="st4"/><circle cx="36" cy="31.5" r="1.5" class="st4"/><circle cx="32" cy="31.5" r="1.5" class="st4"/><circle cx="36" cy="27.5" r="1.5" class="st4"/><circle cx="40" cy="35.3" r="1.5" class="st4"/><circle cx="40" cy="31.5" r="1.5" class="st4"/><circle cx="40" cy="27.5" r="1.5" class="st4"/><circle cx="32" cy="27.5" r="1.5" class="st4"/><circle cx="48" cy="27.5" r="1.5" class="st4"/><circle cx="44" cy="27.5" r="1.5" class="st4"/></g><g><path d="M39.9,37H24.1c-0.9,0-1.6,0.7-1.6,1.5s0.7,1.5,1.6,1.5h15.8c0.9,0,1.6-0.7,1.6-1.5S40.8,37,39.9,37z" class="st5"/><circle cx="20" cy="38.5" r="1.5" class="st5"/><circle cx="16" cy="38.5" r="1.5" class="st5"/><circle cx="48" cy="38.5" r="1.5" class="st5"/><circle cx="44" cy="38.5" r="1.5" class="st5"/><path d="M20,32.8h-4c-0.8,0-1.5,0.7-1.5,1.5c0,0.8,0.7,1.5,1.5,1.5h4c0.8,0,1.5-0.7,1.5-1.5 C21.5,33.5,20.8,32.8,20,32.8z" class="st5"/><path d="M48,32.8h-4c-0.8,0-1.5,0.7-1.5,1.5c0,0.8,0.7,1.5,1.5,1.5h4c0.8,0,1.5-0.7,1.5-1.5 C49.5,33.5,48.8,32.8,48,32.8z" class="st5"/><circle cx="20" cy="30.5" r="1.5" class="st5"/><circle cx="16" cy="30.5" r="1.5" class="st5"/><circle cx="48" cy="30.5" r="1.5" class="st5"/><circle cx="44" cy="30.5" r="1.5" class="st5"/><circle cx="20" cy="26.5" r="1.5" class="st5"/><circle cx="16" cy="26.5" r="1.5" class="st5"/><circle cx="28" cy="34.3" r="1.5" class="st5"/><circle cx="24" cy="34.3" r="1.5" class="st5"/><circle cx="28" cy="30.5" r="1.5" class="st5"/><circle cx="24" cy="30.5" r="1.5" class="st5"/><circle cx="28" cy="26.5" r="1.5" class="st5"/><circle cx="24" cy="26.5" r="1.5" class="st5"/><circle cx="36" cy="34.3" r="1.5" class="st5"/><circle cx="32" cy="34.3" r="1.5" class="st5"/><circle cx="36" cy="30.5" r="1.5" class="st5"/><circle cx="32" cy="30.5" r="1.5" class="st5"/><circle cx="36" cy="26.5" r="1.5" class="st5"/><circle cx="40" cy="34.3" r="1.5" class="st5"/><circle cx="40" cy="30.5" r="1.5" class="st5"/><circle cx="40" cy="26.5" r="1.5" class="st5"/><circle cx="32" cy="26.5" r="1.5" class="st5"/><circle cx="48" cy="26.5" r="1.5" class="st5"/><circle cx="44" cy="26.5" r="1.5" class="st5"/></g></svg>