<svg xmlns="http://www.w3.org/2000/svg" xmlns:xlink="http://www.w3.org/1999/xlink" id="Layer_1" x="0" y="0" version="1.1" viewBox="0 0 64 64" style="enable-background:new 0 0 64 64" xml:space="preserve"><style type="text/css">.st0{fill:#e0e0d1}.st1{fill:#76c2af}.st2{fill:#4f5d73}.st3{opacity:.2}.st4{fill:#fff}.st5{opacity:.2}.st5,.st6{fill:#231f20}</style><circle cx="32" cy="32" r="32" class="st0"/><g><g><circle cx="32" cy="32" r="15.4" class="st1"/></g><circle cx="32" cy="32" r="8.5" class="st2"/><g class="st3"><path d="M43.1,17.9c-6.1-1.3-14-0.8-20.3,0.9c-0.5,1.5-0.8,3.1-0.8,4.8C22,32.1,28.9,39,37.4,39 c5.5,0,10.2-2.9,13-7.1C49.4,26,47.8,18.9,43.1,17.9z" class="st4"/></g><circle cx="36" cy="26" r="2" class="st4"/><path d="M32,20.5c6.7,0,12.1,5.4,12.1,12.1S38.7,44.7,32,44.7s-12.1-5.4-12.1-12.1S25.3,20.5,32,20.5 M32,17.2 c-8.5,0-15.4,6.9-15.4,15.4C16.6,41.1,23.5,48,32,48s15.4-6.9,15.4-15.4C47.4,24.1,40.5,17.2,32,17.2L32,17.2z" class="st5"/><g><path d="M32,19c7.2,0,13,5.8,13,13s-5.8,13-13,13s-13-5.8-13-13S24.8,19,32,19 M32,16c-8.8,0-16,7.2-16,16 s7.2,16,16,16c8.8,0,16-7.2,16-16S40.8,16,32,16L32,16z" class="st2"/></g><path d="M32,17.4c8.3,0,15,6.7,15,15c0,8.3-6.7,15-15,15s-15-6.7-15-15C17,24.2,23.7,17.4,32,17.4 M32,14.2 c-10.1,0-18.2,8.2-18.2,18.2c0,10.1,8.2,18.2,18.2,18.2s18.2-8.2,18.2-18.2C50.2,22.4,42.1,14.2,32,14.2L32,14.2z" class="st5"/><g><path d="M32,16c8.8,0,16,7.2,16,16s-7.2,16-16,16s-16-7.2-16-16S23.2,16,32,16 M32,13c-10.5,0-19,8.5-19,19 s8.5,19,19,19s19-8.5,19-19S42.5,13,32,13L32,13z" class="st2"/></g><path d="M32,14.5c9.9,0,17.9,8,17.9,17.9c0,9.9-8,17.9-17.9,17.9s-17.9-8-17.9-17.9C14.1,22.6,22.1,14.5,32,14.5 M32,11.4c-11.6,0-21.1,9.4-21.1,21.1c0,11.6,9.4,21.1,21.1,21.1s21.1-9.4,21.1-21.1C53.1,20.8,43.6,11.4,32,11.4L32,11.4z" class="st5"/><g class="st3"><circle cx="32" cy="34" r="22" class="st6"/></g><g><path d="M32,13c10.5,0,19,8.5,19,19s-8.5,19-19,19s-19-8.5-19-19S21.5,13,32,13 M32,10c-12.2,0-22,9.8-22,22 s9.8,22,22,22s22-9.8,22-22S44.2,10,32,10L32,10z" class="st2"/></g></g></svg>