<svg xmlns="http://www.w3.org/2000/svg" xmlns:xlink="http://www.w3.org/1999/xlink" id="Layer_1" x="0" y="0" version="1.1" viewBox="0 0 64 64" style="enable-background:new 0 0 64 64" xml:space="preserve"><style type="text/css">.st0{fill:#c75c5c}.st1{opacity:.2}.st2,.st3{fill:#231f20}.st3{opacity:.2}.st4{fill:#4f5d73}.st5{fill:#fff}.st6{fill:#f5cf87}</style><circle cx="32" cy="32" r="32" class="st0"/><g class="st1"><path d="M33.8,25.5L12.6,46.8c-0.8,0.8-0.8,2,0,2.8l2.8,2.8c0.8,0.8,2,0.8,2.8,0l21.2-21.2L33.8,25.5z" class="st2"/></g><path d="M47.9,22.7c0.8-0.8,0.8-2,0-2.8l-2.8-2.8c-0.8-0.8-2-0.8-2.8,0l-7.1,7.1l5.7,5.7L47.9,22.7z" class="st3"/><g class="st1"><path d="M20.5,31.6c-0.8,0-1.5-0.7-1.5-1.5v-8c0-0.8,0.7-1.5,1.5-1.5c0.8,0,1.5,0.7,1.5,1.5v8 C22,30.9,21.3,31.6,20.5,31.6z" class="st2"/></g><g class="st1"><path d="M23.1,27h-5.1c-0.8,0-1.5-0.7-1.5-1.5s0.7-1.5,1.5-1.5h5.1c0.8,0,1.5,0.7,1.5,1.5S23.9,27,23.1,27z" class="st2"/></g><g class="st1"><path d="M33.5,22c-0.8,0-1.5-0.7-1.5-1.5v-8c0-0.8,0.7-1.5,1.5-1.5c0.8,0,1.5,0.7,1.5,1.5v8C35,21.3,34.3,22,33.5,22z" class="st2"/></g><g class="st1"><path d="M36.1,17.4h-5.1c-0.8,0-1.5-0.7-1.5-1.5s0.7-1.5,1.5-1.5h5.1c0.8,0,1.5,0.7,1.5,1.5S36.9,17.4,36.1,17.4z" class="st2"/></g><g class="st1"><path d="M49.5,41.6c-0.8,0-1.5-0.7-1.5-1.5v-8c0-0.8,0.7-1.5,1.5-1.5c0.8,0,1.5,0.7,1.5,1.5v8 C51,40.9,50.3,41.6,49.5,41.6z" class="st2"/></g><g class="st1"><path d="M52.1,37h-5.1c-0.8,0-1.5-0.7-1.5-1.5c0-0.8,0.7-1.5,1.5-1.5h5.1c0.8,0,1.5,0.7,1.5,1.5 C53.6,36.3,52.9,37,52.1,37z" class="st2"/></g><g><path d="M33.8,23.5L12.6,44.8c-0.8,0.8-0.8,2,0,2.8l2.8,2.8c0.8,0.8,2,0.8,2.8,0l21.2-21.2L33.8,23.5z" class="st4"/></g><path d="M47.9,20.7c0.8-0.8,0.8-2,0-2.8l-2.8-2.8c-0.8-0.8-2-0.8-2.8,0l-7.1,7.1l5.7,5.7L47.9,20.7z" class="st5"/><g><path d="M20.5,29.6c-0.8,0-1.5-0.7-1.5-1.5v-8c0-0.8,0.7-1.5,1.5-1.5c0.8,0,1.5,0.7,1.5,1.5v8 C22,28.9,21.3,29.6,20.5,29.6z" class="st6"/></g><g><path d="M23.1,25h-5.1c-0.8,0-1.5-0.7-1.5-1.5s0.7-1.5,1.5-1.5h5.1c0.8,0,1.5,0.7,1.5,1.5S23.9,25,23.1,25z" class="st6"/></g><g><path d="M33.5,20c-0.8,0-1.5-0.7-1.5-1.5v-8C32,9.7,32.7,9,33.5,9c0.8,0,1.5,0.7,1.5,1.5v8C35,19.3,34.3,20,33.5,20z" class="st6"/></g><g><path d="M36.1,15.4h-5.1c-0.8,0-1.5-0.7-1.5-1.5s0.7-1.5,1.5-1.5h5.1c0.8,0,1.5,0.7,1.5,1.5S36.9,15.4,36.1,15.4z" class="st6"/></g><g><path d="M49.5,39.6c-0.8,0-1.5-0.7-1.5-1.5v-8c0-0.8,0.7-1.5,1.5-1.5c0.8,0,1.5,0.7,1.5,1.5v8 C51,38.9,50.3,39.6,49.5,39.6z" class="st6"/></g><g><path d="M52.1,35h-5.1c-0.8,0-1.5-0.7-1.5-1.5c0-0.8,0.7-1.5,1.5-1.5h5.1c0.8,0,1.5,0.7,1.5,1.5 C53.6,34.3,52.9,35,52.1,35z" class="st6"/></g></svg>