<svg xmlns="http://www.w3.org/2000/svg" xmlns:xlink="http://www.w3.org/1999/xlink" id="Layer_1" x="0" y="0" version="1.1" viewBox="0 0 64 64" style="enable-background:new 0 0 64 64" xml:space="preserve"><style type="text/css">.st0{fill:#c75c5c}.st1{opacity:.2;fill:#231f20}.st2{fill:#4f5d73}.st3{fill:#e0e0d1}.st4{fill:#f5cf87}</style><circle cx="32" cy="32" r="32" class="st0"/><path d="M48,52c0,1.1-0.9,2-2,2H18c-1.1,0-2-0.9-2-2V16c0-1.1,0.9-2,2-2h23c1.1,0,7,5.9,7,7V52z" class="st1"/><path d="M48,50c0,1.1-0.9,2-2,2H18c-1.1,0-2-0.9-2-2V14c0-1.1,0.9-2,2-2h23c1.1,0,7,5.9,7,7V50z" class="st2"/><path d="M44,46c0,1.1-0.9,2-2,2H22c-1.1,0-2-0.9-2-2V26c0-1.1,0.9-2,2-2h20c1.1,0,2,0.9,2,2V46z" class="st3"/><rect width="4" height="6" x="20" y="12" class="st4"/><rect width="4" height="6" x="26" y="12" class="st4"/><rect width="4" height="6" x="32" y="12" class="st4"/></svg>