<svg xmlns="http://www.w3.org/2000/svg" xmlns:xlink="http://www.w3.org/1999/xlink" id="Layer_1" x="0" y="0" version="1.1" viewBox="0 0 64 64" style="enable-background:new 0 0 64 64" xml:space="preserve"><style type="text/css">.st0{fill:#f5cf87}.st1{fill:#e0e0d1}.st2{opacity:.2}.st3,.st4{fill:#231f20}.st4{opacity:.2}.st5{fill:#e0995e}.st6{fill:#4f5d73}</style><circle cx="32" cy="32" r="32" class="st0"/><path d="M18,45" class="st1"/><g class="st2"><path d="M31.3,26.7L16.2,44.2c-0.7,0.7-0.7,1.8,0,2.4l0.8,0.8l-2,2c-0.6,0.6-0.6,1.5,0,2.1c0.3,0.3,0.7,0.4,1.1,0.4 c0.4,0,0.8-0.1,1.1-0.4l2-2l0.6,0.6c0.7,0.7,1.8,0.7,2.4,0l17.7-14.9c-2.1-0.5-4-1.5-5.5-3C32.7,30.7,31.7,28.7,31.3,26.7z" class="st3"/></g><circle cx="42.2" cy="24.8" r="9.2" class="st4"/><circle cx="42.2" cy="21.8" r="9.2" class="st5"/><g><path d="M31.3,24.2L16.2,41.7c-0.7,0.7-0.7,1.8,0,2.4l0.8,0.8l-2,2c-0.6,0.6-0.6,1.5,0,2.1c0.3,0.3,0.7,0.4,1.1,0.4 c0.4,0,0.8-0.1,1.1-0.4l2-2l0.6,0.6c0.7,0.7,1.8,0.7,2.4,0l17.7-14.9c-2.1-0.5-4-1.5-5.5-3C32.7,28.2,31.7,26.2,31.3,24.2z" class="st6"/><path d="M48,28.9c-2.8-0.9-5.4-2.5-7.6-4.6c-2.5-2.5-4.1-5.5-4.9-8.8c-3.4,3.6-3.4,9.3,0.1,12.8 c1.8,1.8,4.1,2.7,6.5,2.7C44.3,31,46.3,30.3,48,28.9z" class="st6"/><path d="M48.7,15.3c-1.8-1.8-4.1-2.7-6.5-2.7c-1.4,0-2.8,0.3-4.1,1c0.6,3.2,2,6.2,4.5,8.6c2.2,2.2,4.8,3.6,7.6,4.2 C52.1,23,51.7,18.4,48.7,15.3z" class="st6"/></g></svg>