<svg xmlns="http://www.w3.org/2000/svg" xmlns:xlink="http://www.w3.org/1999/xlink" x="0" y="0" version="1.1" viewBox="0 0 64 64" style="enable-background:new 0 0 64 64" xml:space="preserve"><style type="text/css">.st0{fill:#c75c5c}.st1{opacity:.2}.st2{fill:#231f20}.st3{fill:#e0e0d1}.st4{fill:#4f5d73}</style><g id="Layer_1"><g><circle cx="32" cy="32" r="32" class="st0"/></g><g class="st1"><path d="M52,50c0,2.2-1.8,4-4,4H16c-2.2,0-4-1.8-4-4V22c0-2.2,1.8-4,4-4h32c2.2,0,4,1.8,4,4V50z" class="st2"/></g><g><path d="M52,48c0,2.2-1.8,4-4,4H16c-2.2,0-4-1.8-4-4V20c0-2.2,1.8-4,4-4h32c2.2,0,4,1.8,4,4V48z" class="st3"/></g><g class="st1"><path d="M52,46c0,2.2-1.8,4-4,4H16c-2.2,0-4-1.8-4-4V18c0-2.2,1.8-4,4-4h32c2.2,0,4,1.8,4,4V46z" class="st2"/></g><g><path d="M52,44c0,2.2-1.8,4-4,4H16c-2.2,0-4-1.8-4-4V16c0-2.2,1.8-4,4-4h32c2.2,0,4,1.8,4,4V44z" class="st3"/></g><g><rect width="12" height="12" x="16" y="24" class="st4"/></g><g><rect width="12" height="1" x="36" y="27" class="st4"/></g><g><rect width="12" height="1" x="36" y="25" class="st4"/></g><g><rect width="3" height="4" x="32" y="24" class="st4"/></g><g><rect width="16" height="1" x="32" y="30" class="st4"/></g><g><rect width="16" height="1" x="32" y="32" class="st4"/></g><g><rect width="16" height="1" x="32" y="34" class="st4"/></g><g><rect width="16" height="1" x="32" y="36" class="st4"/></g><g><rect width="12.1" height="1" x="35.9" y="39" class="st4"/></g><g><rect width="12" height="1" x="16" y="39" class="st4"/></g><g><rect width="12" height="1" x="16" y="41" class="st4"/></g><g><rect width="12" height="1" x="16" y="43" class="st4"/></g><g><rect width="12" height="1" x="16" y="45" class="st4"/></g><g><rect width="16" height="1" x="32" y="41" class="st4"/></g><g><rect width="16" height="1" x="32" y="43" class="st4"/></g><g><rect width="16" height="1" x="32" y="45" class="st4"/></g><g><circle cx="24" cy="28" r="2" class="st3"/></g><g><rect width="32" height="4" x="16" y="16" class="st4"/></g><g><g><path d="M27,35v-2.4l-0.8-0.8c-0.5-0.5-1.3-0.5-1.8,0l-0.8,0.8l-1.9-1.9c-1-1-2.6-1-3.5,0L17,31.9V35H27z" class="st3"/></g></g></g></svg>