<svg xmlns="http://www.w3.org/2000/svg" xmlns:xlink="http://www.w3.org/1999/xlink" id="Layer_1" x="0" y="0" version="1.1" viewBox="0 0 64 64" style="enable-background:new 0 0 64 64" xml:space="preserve"><style type="text/css">.st0{fill:#e0e0d1}.st1{opacity:.2;fill:#231f20}.st2{fill:none;stroke:#4f5d73;stroke-width:4;stroke-linecap:round;stroke-miterlimit:10}.st3{fill:#c75c5c}.st4{fill:#e0995e}</style><circle cx="32" cy="32" r="32" class="st0"/><path d="M52,17H20c-1.1,0-2,0.9-2,2v2h-4c-2.2,0-4,1.8-4,4v7c0,2.2,1.8,4,4,4h18v19c0,1.1,0.9,2,2,2c1.1,0,2-0.9,2-2V36	c0-2.2-1.8-4-4-4H14v-7h4v2c0,1.1,0.9,2,2,2h17.5c0.8,0,1.5,0.7,1.5,1.5s0.7,1.5,1.5,1.5c0.8,0,1.5-0.7,1.5-1.5s0.7-1.5,1.5-1.5	c0.8,0,1.5,0.7,1.5,1.5v3c0,0.8,0.7,1.5,1.5,1.5c0.8,0,1.5-0.7,1.5-1.5v-3c0-0.8,0.7-1.5,1.5-1.5c0.8,0,1.5,0.7,1.5,1.5v1	c0,0.8,0.7,1.5,1.5,1.5c0.8,0,1.5-0.7,1.5-1.5V27v-1.5V23v-4C54,17.9,53.1,17,52,17z" class="st1"/><path d="M34,53V34c0-1.1-0.9-2-2-2H14c-1.1,0-2-0.9-2-2v-7c0-1.1,0.9-2,2-2h18" class="st2"/><path d="M54,29.5c0,0.8-0.7,1.5-1.5,1.5l0,0c-0.8,0-1.5-0.7-1.5-1.5v-6c0-0.8,0.7-1.5,1.5-1.5l0,0	c0.8,0,1.5,0.7,1.5,1.5V29.5z" class="st3"/><path d="M48,31.5c0,0.8-0.7,1.5-1.5,1.5l0,0c-0.8,0-1.5-0.7-1.5-1.5v-6c0-0.8,0.7-1.5,1.5-1.5l0,0	c0.8,0,1.5,0.7,1.5,1.5V31.5z" class="st3"/><path d="M51,24c0,0.8-0.7,1.5-1.5,1.5V26c-0.8,0-1.5-1.2-1.5-2v4.5c0-0.8,0.7-1.5,1.5-1.5l0,0c0.8,0,1.5,0.7,1.5,1.5V24	z" class="st3"/><path d="M42,28.5c0,0.8-0.7,1.5-1.5,1.5l0,0c-0.8,0-1.5-0.7-1.5-1.5v-6c0-0.8,0.7-1.5,1.5-1.5l0,0	c0.8,0,1.5,0.7,1.5,1.5V28.5z" class="st3"/><path d="M45,24c0,0.8-0.7,1.5-1.5,1.5V26c-0.8,0-1.5-1.2-1.5-2v4.5c0-0.8,0.7-1.5,1.5-1.5l0,0c0.8,0,1.5,0.7,1.5,1.5V24	z" class="st3"/><path d="M39,24c0,0.8-0.7,1.5-1.5,1.5V26c-0.8,0-1.5-1.2-1.5-2v2c0-0.8,0.7,1,1.5,1l0,0c0.8,0,1.5,0.7,1.5,1.5V24z" class="st3"/><g><path d="M54,17c0-1.1-0.9-2-2-2H20c-1.1,0-2,0.9-2,2v4h36V17z" class="st4"/><path d="M18,17v8c0,1.1,0.9,2,2,2h32c1.1,0,2-0.9,2-2v-4L18,17z" class="st3"/></g></svg>