<svg xmlns="http://www.w3.org/2000/svg" xmlns:xlink="http://www.w3.org/1999/xlink" x="0" y="0" version="1.1" viewBox="0 0 64 64" style="enable-background:new 0 0 64 64" xml:space="preserve"><style type="text/css">.st0{fill:#77b3d4}.st1{opacity:.2}.st2{fill:#231f20}.st3{fill:#c75c5c}.st4{fill:#e0995e}.st5{fill:#f5cf87}.st6{fill:#4f5d73}.st7{fill:#fff}</style><g id="Layer_1"><g><circle cx="32" cy="32" r="32" class="st0"/></g><g class="st1"><path d="M37,14H27c-1.7,0-3,1.3-3,3v5v1v23l5.3,8l2.7,4l2.7-4l5.3-8V23v-1v-5C40,15.3,38.7,14,37,14z" class="st2"/></g><g><path d="M40,21c0,1.7-1.3,3-3,3H27c-1.7,0-3-1.3-3-3v-6c0-1.7,1.3-3,3-3h10c1.7,0,3,1.3,3,3V21z" class="st3"/></g><g><rect width="4" height="24" x="24" y="20" class="st4"/></g><g><rect width="8" height="26" x="28" y="20" class="st5"/></g><g><rect width="4" height="24" x="36" y="20" class="st4"/></g><g><g><polygon points="32 56 34.7 52 29.3 52" class="st6"/></g><g><polygon points="24 44 29.3 52 34.7 52 40 44 38 44 36 42 32 46 28 42 26 44" class="st7"/></g></g></g></svg>