<svg xmlns="http://www.w3.org/2000/svg" xmlns:xlink="http://www.w3.org/1999/xlink" x="0" y="0" version="1.1" viewBox="0 0 64 64" style="enable-background:new 0 0 64 64" xml:space="preserve"><style type="text/css">.st0{fill:#77b3d4}.st1{opacity:.2}.st2{fill:#231f20}.st3{fill:#fff}</style><g id="Layer_1"><g><circle cx="32" cy="32" r="32" class="st0"/></g><g class="st1"><g><path d="M29,25.3c-0.4-4.8-5.4-7.1-5.6-7.2C23.1,18,22.9,18,22.7,18c-5.8,1-6.6,4.3-6.7,4.5c0,0.2,0,0.4,0,0.6 c6.9,21.4,21.2,25.3,25.9,26.6c0.4,0.1,0.7,0.2,0.9,0.3c0.1,0,0.2,0.1,0.3,0.1c0.2,0,0.3,0,0.5-0.1c0.1-0.1,3.5-1.7,4.4-6.9 c0-0.2,0-0.5-0.1-0.7c-0.1-0.1-1.9-3.5-6.8-4.7c-0.3-0.1-0.7,0-1,0.2c-1.6,1.3-3.7,2.7-4.6,2.9c-6.2-3-9.7-8.9-9.8-10 c-0.1-0.6,1.3-2.8,3-4.6C28.9,26,29,25.6,29,25.3z" class="st2"/></g></g><g><g><path d="M29,23.3c-0.4-4.8-5.4-7.1-5.6-7.2C23.1,16,22.9,16,22.7,16c-5.8,1-6.6,4.3-6.7,4.5c0,0.2,0,0.4,0,0.6 c6.9,21.4,21.2,25.3,25.9,26.6c0.4,0.1,0.7,0.2,0.9,0.3c0.1,0,0.2,0.1,0.3,0.1c0.2,0,0.3,0,0.5-0.1c0.1-0.1,3.5-1.7,4.4-6.9 c0-0.2,0-0.5-0.1-0.7c-0.1-0.1-1.9-3.5-6.8-4.7c-0.3-0.1-0.7,0-1,0.2c-1.6,1.3-3.7,2.7-4.6,2.9c-6.2-3-9.7-8.9-9.8-10 c-0.1-0.6,1.3-2.8,3-4.6C28.9,24,29,23.6,29,23.3z" class="st3"/></g></g></g></svg>