<svg xmlns="http://www.w3.org/2000/svg" xmlns:xlink="http://www.w3.org/1999/xlink" x="0" y="0" version="1.1" viewBox="0 0 64 64" style="enable-background:new 0 0 64 64" xml:space="preserve"><style type="text/css">.st0{fill:#e0e0d1}.st1{opacity:.2}.st2{fill:#231f20}.st3{fill:#c75c5c}.st4{fill:#4f5d73}</style><g id="Layer_1"><g><circle cx="32" cy="32" r="32" class="st0"/></g><g class="st1"><path d="M39.5,37.2V22.8c2.7-0.9,4.5-2.3,4.5-3.9c0-2.8-5.4-4-12-4s-12,1.2-12,4c0,1.6,1.8,3,4.5,3.9v14.3 c-2.7,0.9-4.5,2.3-4.5,3.9c0,2.5,4.3,4.5,10,4.9v7.1l2,4l2-4V46c5.7-0.4,10-2.4,10-4.9C44,39.5,42.2,38.1,39.5,37.2z" class="st2"/></g><g><ellipse cx="32" cy="39.1" class="st3" rx="12" ry="5"/></g><g><path d="M44,16.9c0,2.8-5.4,5-12,5s-12-2.2-12-5s5.4-4,12-4S44,14.2,44,16.9z" class="st3"/></g><g><rect width="14" height="20" x="25" y="20" class="st3"/></g><g><polygon points="30 51.1 32 55.1 34 51.1 34 41.1 30 41.1" class="st4"/></g><g><ellipse cx="32" cy="41.2" class="st4" rx="2" ry="1.4"/></g></g></svg>