<svg xmlns="http://www.w3.org/2000/svg" xmlns:xlink="http://www.w3.org/1999/xlink" x="0" y="0" version="1.1" viewBox="0 0 64 64" style="enable-background:new 0 0 64 64" xml:space="preserve"><style type="text/css">.st0{fill:#4f5d73}.st1{fill:#c75c5c}.st2{fill:#f5cf87}.st3{fill:#76c2af}.st4{opacity:.2}.st5{fill:#231f20}.st6{fill:#e0e0d1}.st7{fill:#77b3d4}</style><g id="Layer_1"><g><circle cx="32" cy="32" r="32" class="st0"/></g><g><path d="M16,36c0,1.1-0.9,2-2,2l0,0c-1.1,0-2-0.9-2-2v-2c0-1.1,0.9-2,2-2l0,0c1.1,0,2,0.9,2,2V36z" class="st1"/></g><g><path d="M24,28c0,1.1-0.9,2-2,2l0,0c-1.1,0-2-0.9-2-2v-2c0-1.1,0.9-2,2-2l0,0c1.1,0,2,0.9,2,2V28z" class="st2"/></g><g><path d="M44,28c0,1.1-0.9,2-2,2l0,0c-1.1,0-2-0.9-2-2v-2c0-1.1,0.9-2,2-2l0,0c1.1,0,2,0.9,2,2V28z" class="st2"/></g><g><path d="M48,36c0,1.1,0.9,2,2,2l0,0c1.1,0,2-0.9,2-2v-2c0-1.1-0.9-2-2-2l0,0c-1.1,0-2,0.9-2,2V36z" class="st3"/></g><g class="st4"><path d="M32,32.6l17,4.8c2.9,0.9,3-0.4,3-2.4v1.2c0-2,0.1-3.4-1.8-4.5L32,23l-18.2,8.7c-1.8,1.1-1.8,2.5-1.8,4.5V35 c0,2,0.1,3.3,3,2.4L32,32.6z" class="st5"/></g><g><path d="M32,30.6l17,4.8c2.9,0.9,3-0.4,3-2.4v1.2c0-2,0.1-3.4-1.8-4.5L32,21l-18.2,8.7c-1.8,1.1-1.8,2.5-1.8,4.5V33 c0,2,0.1,3.3,3,2.4L32,30.6z" class="st6"/></g><g><g><path d="M52,33.4C52,33.4,52,33.4,52,33.4l0-0.4C52,33.1,52,33.2,52,33.4z" class="st6"/></g><g><path d="M52,33.5v0.7C52,33.9,52,33.7,52,33.5z" class="st6"/></g><g class="st4"><polygon points="32 21 27 23.4 27.4 31.9 32 30.6 36.6 31.9 37 23.4" class="st5"/></g></g><g><path d="M35,43.6c0,1.6-0.3,2.9-2,2.9h-2c-1.7,0-2-1.3-2-2.9l-1-26.9c0-1.6,2.3-6.8,4-6.8l0,0c1.7,0,4,5.2,4,6.8 L35,43.6z" class="st6"/></g><g class="st4"><path d="M43,48.8L32,42l-11,6.8c-1.2,0.9-1,2.3-1,3.9c0,0,0.2,1.8,2,1.1L32,50l10,3.9c1.8,0.7,2-1.1,2-1.1 C44,51.1,44.1,49.8,43,48.8z" class="st5"/></g><g><path d="M43,46.8L32,40l-11,6.8c-1.2,0.9-1,2.3-1,3.9c0,0,0.2,1.8,2,1.1L32,48l10,3.9c1.8,0.7,2-1.1,2-1.1 C44,49.1,44.1,47.8,43,46.8z" class="st6"/></g><g class="st4"><path d="M34,51c0,1.1-0.9,2-2,2l0,0c-1.1,0-2-0.9-2-2v-5c0-1.1,0.9-2,2-2l0,0c1.1,0,2,0.9,2,2V51z" class="st5"/></g><g><path d="M34,49c0,1.1-0.9,2-2,2l0,0c-1.1,0-2-0.9-2-2v-5c0-1.1,0.9-2,2-2l0,0c1.1,0,2,0.9,2,2V49z" class="st6"/></g><g><g><path d="M32,16c1.2,0,2.2-1.2,2.7-3c-0.8-1.6-1.9-3-2.7-3s-1.9,1.4-2.7,3C29.8,14.8,30.8,16,32,16z" class="st7"/></g></g></g></svg>