<svg xmlns="http://www.w3.org/2000/svg" xmlns:xlink="http://www.w3.org/1999/xlink" id="Layer_1" x="0" y="0" version="1.1" viewBox="0 0 64 64" style="enable-background:new 0 0 64 64" xml:space="preserve"><style type="text/css">.st0{fill:#76c2af}.st1{opacity:.2;fill:#231f20}.st2{fill:#4f5d73}.st3{fill:#e0e0d1}</style><circle cx="32" cy="32" r="32" class="st0"/><path d="M18.4,50.4c-0.8,0.8-2,0.8-2.8,0l0,0c-0.8-0.8-0.8-2,0-2.8l9.9-9.9c0.8-0.8,2-0.8,2.8,0l0,0	c0.8,0.8,0.8,2,0,2.8L18.4,50.4z" class="st1"/><path d="M31.1,26.4c-0.8,0.8-2,0.8-2.8,0l0,0c-0.8-0.8-0.8-2,0-2.8l9.9-9.9c0.8-0.8,2-0.8,2.8,0l0,0	c0.8,0.8,0.8,2,0,2.8L31.1,26.4z" class="st1"/><path d="M42.5,37.7c-0.8,0.8-2,0.8-2.8,0l0,0c-0.8-0.8-0.8-2,0-2.8l9.9-9.9c0.8-0.8,2-0.8,2.8,0l0,0	c0.8,0.8,0.8,2,0,2.8L42.5,37.7z" class="st1"/><path d="M18.4,48.4c-0.8,0.8-2,0.8-2.8,0l0,0c-0.8-0.8-0.8-2,0-2.8l9.9-9.9c0.8-0.8,2-0.8,2.8,0l0,0	c0.8,0.8,0.8,2,0,2.8L18.4,48.4z" class="st2"/><path d="M31.1,24.4c-0.8,0.8-2,0.8-2.8,0l0,0c-0.8-0.8-0.8-2,0-2.8l9.9-9.9c0.8-0.8,2-0.8,2.8,0l0,0	c0.8,0.8,0.8,2,0,2.8L31.1,24.4z" class="st3"/><path d="M42.5,35.7c-0.8,0.8-2,0.8-2.8,0l0,0c-0.8-0.8-0.8-2,0-2.8l9.9-9.9c0.8-0.8,2-0.8,2.8,0l0,0	c0.8,0.8,0.8,2,0,2.8L42.5,35.7z" class="st3"/><path d="M27.9,19.3l-8,8c-4.3,4.3-4.3,11.3,0,15.6l2.8,2.8c4.3,4.3,11.3,4.3,15.6,0l8-8L27.9,19.3z" class="st1"/><path d="M27.9,17.7l-8,8c-4.3,4.3-4.3,11.3,0,15.6l2.8,2.8c4.3,4.3,11.3,4.3,15.6,0l8-8L27.9,17.7z" class="st2"/><path d="M48.1,40.4c-0.8,0.8-2,0.8-2.8,0L25.5,20.6c-0.8-0.8-0.8-2,0-2.8l0,0c0.8-0.8,2-0.8,2.8,0l19.8,19.8	C48.9,38.4,48.9,39.6,48.1,40.4L48.1,40.4z" class="st1"/><path d="M48.1,38.5c-0.8,0.8-2,0.8-2.8,0L25.5,18.7c-0.8-0.8-0.8-2,0-2.8l0,0c0.8-0.8,2-0.8,2.8,0l19.8,19.8	C48.9,36.5,48.9,37.7,48.1,38.5L48.1,38.5z" class="st2"/></svg>