<svg xmlns="http://www.w3.org/2000/svg" xmlns:xlink="http://www.w3.org/1999/xlink" id="Layer_1" x="0" y="0" version="1.1" viewBox="0 0 64 64" style="enable-background:new 0 0 64 64" xml:space="preserve"><style type="text/css">.st0{fill:#c75c5c}.st1{opacity:.2}.st2{fill:#231f20}.st3{fill:#e0e0d1}.st4{fill:#4f5d73}.st5{fill:#fff}.st6{fill:#77b3d4}</style><circle cx="32" cy="32" r="32" class="st0"/><g class="st1"><path d="M52.2,22l-24.3-4.3c-1-0.2-1.9,0.5-2,1.4l-4.9,27.8c-0.2,1,0.5,1.9,1.4,2l24.3,4.3c1,0.2,1.9-0.5,2-1.4 l4.9-27.8C53.8,23.1,53.2,22.2,52.2,22z M28.3,20.5l22.6,4L47,46.2l-22.6-4L28.3,20.5z" class="st2"/></g><g><path d="M52.5,20.3L28.2,16c-1-0.2-1.9,0.5-2,1.4l-4.9,27.8c-0.2,1,0.5,1.9,1.4,2L47,51.5c1,0.2,1.9-0.5,2-1.4L54,22.3 C54.1,21.4,53.5,20.5,52.5,20.3z M28.6,18.7l22.6,4l-3.9,21.7l-22.6-4L28.6,18.7z" class="st3"/></g><rect width="22.9" height="22" x="26.5" y="20.6" class="st4" transform="matrix(0.9845 0.1751 -0.1751 0.9845 6.1188 -6.1673)"/><g class="st1"><path d="M37.6,15l-24.2,4.8c-1,0.2-1.6,1.1-1.4,2.1l5.5,27.7c0.2,1,1.1,1.6,2.1,1.4l24.2-4.8c1-0.2,1.6-1.1,1.4-2.1 l-5.5-27.7C39.5,15.4,38.6,14.8,37.6,15z M14.8,22.2l22.5-4.5l4.3,21.6l-22.5,4.5L14.8,22.2z" class="st2"/></g><g><path d="M36.1,13l-24.2,4.8c-1,0.2-1.6,1.1-1.4,2.1l5.5,27.7c0.2,1,1.1,1.6,2.1,1.4l24.2-4.8c1-0.2,1.6-1.1,1.4-2.1 l-5.5-27.7C37.9,13.5,37,12.8,36.1,13z M13.2,20.3l22.5-4.5L40,37.4l-22.5,4.5L13.2,20.3z" class="st5"/></g><rect width="22.9" height="22" x="15.2" y="17.8" class="st6" transform="matrix(0.9809 -0.1945 0.1945 0.9809 -5.0999 5.7256)"/></svg>