<svg xmlns="http://www.w3.org/2000/svg" xmlns:xlink="http://www.w3.org/1999/xlink" id="Layer_1" x="0" y="0" version="1.1" viewBox="0 0 64 64" style="enable-background:new 0 0 64 64" xml:space="preserve"><style type="text/css">.st0{fill:#77b3d4}.st1{opacity:.2}.st2{fill:#231f20}.st3{fill:#fff}.st4{fill:#4f5d73}</style><circle cx="32" cy="32" r="32" class="st0"/><g class="st1"><path d="M46,16H18c-1.1,0-2,0.9-2,2v32c0,1.1,0.9,2,2,2h28c1.1,0,2-0.9,2-2V18C48,16.9,47.1,16,46,16z M19,19h26v25H19 V19z" class="st2"/></g><g><path d="M46,14H18c-1.1,0-2,0.9-2,2v32c0,1.1,0.9,2,2,2h28c1.1,0,2-0.9,2-2V16C48,14.9,47.1,14,46,14z M19,17h26v25H19 V17z" class="st3"/></g><rect width="26" height="25" x="19" y="17" class="st4"/></svg>