<svg xmlns="http://www.w3.org/2000/svg" xmlns:xlink="http://www.w3.org/1999/xlink" id="Layer_1" x="0" y="0" version="1.1" viewBox="0 0 64 64" style="enable-background:new 0 0 64 64" xml:space="preserve"><style type="text/css">.st0{fill:#77b3d4}.st1{opacity:.2}.st2{fill:#231f20}.st3{fill:#4f5d73}.st4{stroke-width:3}.st4,.st5,.st6{fill:none;stroke:#4f5d73;stroke-linecap:round;stroke-miterlimit:10}.st5{stroke-width:2}.st6{stroke-width:3;stroke-linejoin:round}</style><circle cx="32" cy="32" r="32" class="st0"/><g class="st1"><circle cx="32" cy="24" r="2.3" class="st2"/><path d="M35.9,30c0.3,0.3,0.7,0.4,1.1,0.4s0.8-0.1,1.1-0.4c1.6-1.6,2.5-3.7,2.5-6c0-2.3-0.9-4.4-2.5-6 c-0.6-0.6-1.5-0.6-2.1,0c-0.6,0.6-0.6,1.5,0,2.1c1,1,1.6,2.4,1.6,3.9c0,1.5-0.6,2.9-1.6,3.9C35.3,28.5,35.3,29.4,35.9,30z" class="st2"/><path d="M43.7,24c0,2.5-1,4.9-2.8,6.7c-0.6,0.6-0.6,1.5,0,2.1c0.3,0.3,0.7,0.4,1.1,0.4c0.4,0,0.8-0.1,1.1-0.4 c2.4-2.4,3.7-5.5,3.7-8.8s-1.3-6.5-3.7-8.8c-0.6-0.6-1.5-0.6-2.1,0c-0.6,0.6-0.6,1.5,0,2.1C42.7,19.1,43.7,21.5,43.7,24z" class="st2"/><path d="M26,30c0.3,0.3,0.7,0.4,1.1,0.4s0.8-0.1,1.1-0.4c0.6-0.6,0.6-1.5,0-2.1c-1-1-1.6-2.4-1.6-3.9 c0-1.5,0.6-2.9,1.6-3.9c0.6-0.6,0.6-1.5,0-2.1c-0.6-0.6-1.5-0.6-2.1,0c-1.6,1.6-2.5,3.7-2.5,6C23.5,26.3,24.4,28.4,26,30z" class="st2"/><path d="M22,33.3c0.4,0,0.8-0.1,1.1-0.4c0.6-0.6,0.6-1.5,0-2.1c-1.8-1.8-2.8-4.2-2.8-6.7s1-4.9,2.8-6.7 c0.6-0.6,0.6-1.5,0-2.1c-0.6-0.6-1.5-0.6-2.1,0c-2.4,2.4-3.7,5.5-3.7,8.8s1.3,6.5,3.7,8.8C21.2,33.1,21.6,33.3,22,33.3z" class="st2"/><path d="M33.4,30c-0.2-0.6-0.8-0.9-1.4-0.9c-0.6,0-1.2,0.4-1.4,0.9l-10,24.4c-0.3,0.8,0.1,1.6,0.8,2 c0.8,0.3,1.6-0.1,2-0.8l3.5-8.6c0,0,0.1,0,0.1,0h10c0,0,0.1,0,0.1,0l3.5,8.6c0.2,0.6,0.8,0.9,1.4,0.9c0.2,0,0.4,0,0.6-0.1 c0.8-0.3,1.1-1.2,0.8-2L33.4,30z M32,34.5l1.4,3.5h-2.8L32,34.5z M28.1,44l1.2-3h5.3l1.2,3H28.1z" class="st2"/></g><circle cx="32" cy="22" r="2.3" class="st3"/><path d="M36.9,17.1c2.7,2.7,2.7,7.2,0,9.9" class="st4"/><path d="M42,14.2c4.3,4.3,4.3,11.3,0,15.6" class="st4"/><path d="M27.1,17.1c-2.7,2.7-2.7,7.2,0,9.9" class="st4"/><path d="M22,14.2c-4.3,4.3-4.3,11.3,0,15.6" class="st4"/><path d="M32,29" class="st5"/><path d="M32,22" class="st4"/><polyline points="22 53 32 28.6 42 53" class="st6"/><line x1="29" x2="35" y1="37.5" y2="37.5" class="st4"/><line x1="27" x2="37" y1="43.5" y2="43.5" class="st4"/></svg>