<svg xmlns="http://www.w3.org/2000/svg" xmlns:xlink="http://www.w3.org/1999/xlink" id="Layer_1" x="0" y="0" version="1.1" viewBox="0 0 64 64" style="enable-background:new 0 0 64 64" xml:space="preserve"><style type="text/css">.st0{fill:#c75c5c}.st1{opacity:.2}.st2{fill:#231f20}.st3{fill:none;stroke:#e0e0d1;stroke-width:2;stroke-linecap:round;stroke-miterlimit:10}.st4{opacity:.2;fill:#231f20}.st5{fill:#f5cf87}.st6{fill:#4f5d73}.st7{fill:#fff}</style><circle cx="32" cy="32" r="32" class="st0"/><g class="st1"><path d="M50,27c-0.1,0-0.2,0-0.3,0l-34-9c-0.5-0.1-0.9-0.7-0.7-1.2c0.1-0.5,0.7-0.9,1.2-0.7l34,9 c0.5,0.1,0.9,0.7,0.7,1.2C50.8,26.7,50.4,27,50,27z" class="st2"/></g><line x1="50" x2="16" y1="24" y2="15" class="st3"/><path d="M52,47c0,1.1-0.9,2-2,2H14c-1.1,0-2-0.9-2-2V27c0-1.1,0.9-2,2-2h36c1.1,0,2,0.9,2,2V47z" class="st4"/><path d="M52,45c0,1.1-0.9,2-2,2H14c-1.1,0-2-0.9-2-2V25c0-1.1,0.9-2,2-2h36c1.1,0,2,0.9,2,2V45z" class="st5"/><g><circle cx="24" cy="35" r="8" class="st6"/></g><g class="st1"><g><path d="M24,29c4.1,0,7.4,3.1,7.9,7c0-0.3,0.1-0.7,0.1-1c0-4.4-3.6-8-8-8c-4.4,0-8,3.6-8,8c0,0.3,0,0.7,0.1,1 C16.6,32.1,19.9,29,24,29z" class="st2"/></g></g><circle cx="36.5" cy="42.5" r="1.5" class="st4"/><circle cx="41.5" cy="42.5" r="1.5" class="st4"/><circle cx="46.5" cy="42.5" r="1.5" class="st4"/><circle cx="36.5" cy="41.5" r="1.5" class="st6"/><circle cx="41.5" cy="41.5" r="1.5" class="st6"/><circle cx="46.5" cy="41.5" r="1.5" class="st6"/><path d="M48,35c0,1.1-0.9,2-2,2h-9c-1.1,0-2-0.9-2-2v-5c0-1.1,0.9-2,2-2h9c1.1,0,2,0.9,2,2V35z" class="st7"/><g class="st1"><path d="M46,28h-9c-1.1,0-2,0.9-2,2v2c0-1.1,0.9-2,2-2h9c1.1,0,2,0.9,2,2v-2C48,28.9,47.1,28,46,28z" class="st2"/></g></svg>