<svg xmlns="http://www.w3.org/2000/svg" xmlns:xlink="http://www.w3.org/1999/xlink" x="0" y="0" version="1.1" viewBox="0 0 64 64" style="enable-background:new 0 0 64 64" xml:space="preserve"><style type="text/css">.st0{fill:#4f5d73}.st1{opacity:.2}.st2{fill:#231f20}.st3{fill:#f5cf87}.st4{fill:#e0995e}</style><g id="Layer_1"><g><circle cx="32" cy="32" r="32" class="st0"/></g><g class="st1"><g><path d="M16,21v31.4c0,1.1,0.7,2,1.6,2.4c0.3,0.1,0.7,0.2,1,0.2c0.7,0,1.4-0.3,1.9-0.8L32,43l11.4,11.2 c0.5,0.5,1.2,0.8,1.9,0.8c0.3,0,0.7-0.1,1-0.2c1-0.4,1.6-1.4,1.6-2.4V21H16z" class="st2"/></g></g><g><g><path d="M16,19v31.4c0,1.1,0.7,2,1.6,2.4c0.3,0.1,0.7,0.2,1,0.2c0.7,0,1.4-0.3,1.9-0.8L32,41l11.4,11.2 c0.5,0.5,1.2,0.8,1.9,0.8c0.3,0,0.7-0.1,1-0.2c1-0.4,1.6-1.4,1.6-2.4V19H16z" class="st3"/></g></g><g class="st1"><path d="M48,21v-2c0-1.1-1.2-2-2.7-2H18.7c-1.5,0-2.7,0.9-2.7,2v2H48z" class="st2"/></g><g><path d="M48,19v-5c0-1.1-1.2-2-2.7-2H18.7c-1.5,0-2.7,0.9-2.7,2v5H48z" class="st4"/></g></g></svg>