<svg xmlns="http://www.w3.org/2000/svg" xmlns:xlink="http://www.w3.org/1999/xlink" x="0" y="0" version="1.1" viewBox="0 0 64 64" style="enable-background:new 0 0 64 64" xml:space="preserve"><style type="text/css">.st0{fill:#4f5d73}.st1{opacity:.2}.st2{fill:#231f20}.st3{fill:#c75c5c}.st4{fill:#e0995e}.st5{fill:#f5cf87}.st6{fill:#e0e0d1}</style><g id="Layer_1"><g><circle cx="32" cy="32" r="32" class="st0"/></g><g class="st1"><path d="M32.1,39.7C30.5,41.2,26,52.2,26,52.2c-0.7,1.2,0.3,2.1,2.6,0.9l8.1-4.4c4.4-2.4,5.2-3.1,5.2-8l-0.8-5.9 c-0.3-2-1.8-2.4-3.3-0.8L32.1,39.7z" class="st2"/></g><g class="st1"><path d="M27.1,34.7c-1.6,1.6-12.5,6.1-12.5,6.1c-1.2,0.7-2.1-0.3-0.9-2.6L18,30c2.4-4.4,3.1-5.2,8-5.2l5.9,0.8 c2,0.3,2.4,1.8,0.8,3.3L27.1,34.7z" class="st2"/></g><g><path d="M32.1,37.7C30.5,39.2,26,50.2,26,50.2c-0.7,1.2,0.3,2.1,2.6,0.9l8.1-4.4c4.4-2.4,5.2-3.1,5.2-8l-0.8-5.9 c-0.3-2-1.8-2.4-3.3-0.8L32.1,37.7z" class="st3"/></g><g><path d="M27.1,32.7c-1.6,1.6-12.5,6.1-12.5,6.1c-1.2,0.7-2.1-0.3-0.9-2.6L18,28c2.4-4.4,3.1-5.2,8-5.2l5.9,0.8 c2,0.3,2.4,1.8,0.8,3.3L27.1,32.7z" class="st3"/></g><g class="st1"><path d="M21.2,39.5c5.1-5.1,9.3-3.5,9.3-3.5s1.5,4.3-3.5,9.3s-13.3,8.8-13.9,8.1C12.5,52.9,16.2,44.6,21.2,39.5z" class="st2"/></g><g><path d="M21.2,37.5c5.1-5.1,9.3-3.5,9.3-3.5s1.5,4.3-3.5,9.3s-13.3,8.8-13.9,8.1C12.5,50.9,16.2,42.6,21.2,37.5z" class="st4"/></g><g><path d="M25.5,33.3c5.1-5.1,9.3-3.5,9.3-3.5s1.5,4.3-3.5,9.3S18,47.9,17.4,47.2C16.7,46.6,20.4,38.4,25.5,33.3z" class="st5"/></g><g class="st1"><path d="M43.6,37.1c-7.8,7.8-19.8,5.7-19.8,5.7s-2.1-12,5.7-19.8s19.6-8.6,21.2-7.1C52.2,17.4,51.4,29.3,43.6,37.1z" class="st2"/></g><g><path d="M43.6,35.1c-7.8,7.8-19.8,5.7-19.8,5.7s-2.1-12,5.7-19.8s19.6-8.6,21.2-7.1C52.2,15.4,51.4,27.3,43.6,35.1z" class="st6"/></g><g class="st1"><path d="M21,47c-0.8,0.8-1.3,1.5-2.1,0.7l0,0c-0.8-0.8-0.1-1.3,0.7-2.1l9.9-12.7c0.8-0.8,4.2-1.5,4.9-0.7l0,0 c0.8,0.8,0.1,4.2-0.7,4.9L21,47z" class="st2"/></g><g><path d="M21,45c-0.8,0.8-1.3,1.5-2.1,0.7l0,0c-0.8-0.8-0.1-1.3,0.7-2.1l9.9-12.7c0.8-0.8,4.2-1.5,4.9-0.7l0,0 c0.8,0.8,0.1,4.2-0.7,4.9L21,45z" class="st3"/></g><g class="st1"><circle cx="39.6" cy="27.1" r="4" class="st2"/></g><g class="st1"><circle cx="45.3" cy="21.5" r="2" class="st2"/></g><g><circle cx="39.6" cy="25.1" r="4" class="st0"/></g><g><circle cx="45.3" cy="19.5" r="2" class="st0"/></g></g></svg>