<svg xmlns="http://www.w3.org/2000/svg" xmlns:xlink="http://www.w3.org/1999/xlink" id="Layer_1" x="0" y="0" version="1.1" viewBox="0 0 64 64" style="enable-background:new 0 0 64 64" xml:space="preserve"><style type="text/css">.st0{display:none;fill:#2b3544}.st1{fill:#4f5d73}.st2{fill:#c75c5c}.st3{fill:#f5cf87}.st4{fill:#e0995e}.st5{fill:#e0e0d1;stroke:#4f5d73;stroke-width:2;stroke-miterlimit:10}</style><rect width="608" height="1984" x="-223" y="-1849" class="st0"/><circle cx="32" cy="32" r="32" class="st1"/><circle cx="46" cy="23" r="2" class="st2"/><circle cx="56" cy="33" r="2" class="st2"/><path d="M46,39c0,2.2,0,4,0,4H14c-2.2,0-4-1.8-4-4V24c0-2.2,1.8-4,4-4h30c2.2,0,2,1.8,2,4V39z" class="st3"/><path d="M56,39c0,0,0.2,4-4,4h-8c0,0,0-1.8,0-4v-5c0-2.2,0-4,0-4h9c2,0,3,0.8,3,3V39z" class="st3"/><rect width="18" height="6" x="15" y="24" class="st4"/><rect width="5" height="6" x="37" y="24" class="st4"/><rect width="5" height="6" x="14" y="24" class="st4"/><circle cx="19" cy="43" r="4" class="st5"/><circle cx="47" cy="43" r="4" class="st5"/></svg>