<svg xmlns="http://www.w3.org/2000/svg" xmlns:xlink="http://www.w3.org/1999/xlink" x="0" y="0" version="1.1" viewBox="0 0 64 64" style="enable-background:new 0 0 64 64" xml:space="preserve"><style type="text/css">.st0{fill:#c75c5c}.st1{opacity:.2}.st2{fill:#231f20}.st3{fill:#f5cf87}.st4{fill:#e0995e}</style><g id="Layer_1"><g><circle cx="32" cy="32" r="32" class="st0"/></g><g class="st1"><path d="M32,56c0,0-18-6.8-18-21.5V20.9c0,0,5.8-6.9,18-6.9V56z" class="st2"/></g><g class="st1"><path d="M32,56c0,0,18-6.8,18-21.5V20.9c0,0-5.8-6.9-18-6.9V56z" class="st2"/></g><g><path d="M32,54c0,0-18-6.8-18-21.5V18.9c0,0,5.8-6.9,18-6.9V54z" class="st3"/></g><g><path d="M32,54c0,0,18-6.8,18-21.5V18.9c0,0-5.8-6.9-18-6.9V54z" class="st4"/></g></g></svg>