<svg xmlns="http://www.w3.org/2000/svg" xmlns:xlink="http://www.w3.org/1999/xlink" x="0" y="0" version="1.1" viewBox="0 0 64 64" style="enable-background:new 0 0 64 64" xml:space="preserve"><style type="text/css">.st0{fill:#76c2af}.st1{fill:#4f5d73}.st2{opacity:.2}.st3{fill:#231f20}.st4{fill:#fff}</style><g id="Layer_1"><g><circle cx="32" cy="32" r="32" class="st0"/></g><g><path d="M32,52c-1.1,0-2-0.9-2-2V18c0-1.1,0.9-2,2-2l0,0c1.1,0,2,0.9,2,2v32C34,51.1,33.1,52,32,52L32,52z" class="st1"/></g><g><path d="M46,52c-1.1,0-2-0.9-2-2V18c0-1.1,0.9-2,2-2l0,0c1.1,0,2,0.9,2,2v32C48,51.1,47.1,52,46,52L46,52z" class="st1"/></g><g><path d="M18,52c-1.1,0-2-0.9-2-2V18c0-1.1,0.9-2,2-2l0,0c1.1,0,2,0.9,2,2v32C20,51.1,19.1,52,18,52L18,52z" class="st1"/></g><g class="st2"><circle cx="45.9" cy="38" r="4" class="st3"/></g><g class="st2"><circle cx="32" cy="27" r="4" class="st3"/></g><g class="st2"><circle cx="18" cy="44" r="4" class="st3"/></g><g><circle cx="45.9" cy="36" r="4" class="st4"/></g><g><circle cx="32" cy="25" r="4" class="st4"/></g><g><circle cx="18" cy="42" r="4" class="st4"/></g></g></svg>