<svg xmlns="http://www.w3.org/2000/svg" xmlns:xlink="http://www.w3.org/1999/xlink" id="Layer_1" x="0" y="0" version="1.1" viewBox="0 0 64 64" style="enable-background:new 0 0 64 64" xml:space="preserve"><style type="text/css">.st0{fill:#76c2af}.st1{opacity:.2;fill:#231f20}.st2{fill:#4f5d73}.st3{fill:#77b3d4}.st4{fill:#f5cf87}.st5{fill:#e0e0d1}.st6{opacity:.2}.st7{fill:#231f20}</style><circle cx="32" cy="32" r="32" class="st0"/><path d="M46,29c-3,0-5.4,2.2-5.9,5H38H14c-1.1,0-2,0.9-2,2v12v2c0,1.1,0.9,2,2,2h24c1.1,0,2-0.9,2-2h10c1.1,0,2-0.9,2-2	v-4v-8v-1C52,31.7,49.3,29,46,29z" class="st1"/><path d="M52,34c0-1.1-0.9-2-2-2H14c-1.1,0-2,0.9-2,2v12c0,1.1,0.9,2,2,2h36c1.1,0,2-0.9,2-2V34z" class="st2"/><path d="M40,42c0,3.3,2.7,6,6,6l0,0c3.3,0,6-2.7,6-6v-9c0-3.3-2.7-6-6-6l0,0c-3.3,0-6,2.7-6,6V42z" class="st2"/><path d="M38,33c0,1.1-0.9,2-2,2H21c-1.1,0-2-0.9-2-2V14c0-1.1,0.9-2,2-2h15c1.1,0,2,0.9,2,2V33z" class="st2"/><path d="M40,48c0,1.1-0.9,2-2,2H14c-1.1,0-2-0.9-2-2V34c0-1.1,0.9-2,2-2h24c1.1,0,2,0.9,2,2V48z" class="st2"/><circle cx="46" cy="33" r="3" class="st3"/><path d="M35,51c0,1.1-1.1,2-2.4,2h-8.3c-1.3,0-2.4-0.9-2.4-2V35c0-1.1,1.1-2,2.4-2h8.3c1.3,0,2.4,0.9,2.4,2V51z" class="st1"/><path d="M34,48c0,1.1-0.9,2-2,2h-7c-1.1,0-2-0.9-2-2V32c0-1.1,0.9-2,2-2h7c1.1,0,2,0.9,2,2V48z" class="st4"/><path d="M34,50c0,1.1-0.9,2-2,2h-7c-1.1,0-2-0.9-2-2V34c0-1.1,0.9-2,2-2h7c1.1,0,2,0.9,2,2V50z" class="st2"/><path d="M49,43c0,1.1-0.9,2-2,2h-7c-1.1,0-2-0.9-2-2v-2c0-1.1,0.9-2,2-2h7c1.1,0,2,0.9,2,2V43z" class="st5"/><g class="st6"><path d="M47,39h-7c-1.1,0-2,0.9-2,2v1c0-1.1,0.9-2,2-2h7c1.1,0,2,0.9,2,2v-1C49,39.9,48.1,39,47,39z" class="st7"/></g></svg>