<svg xmlns="http://www.w3.org/2000/svg" xmlns:xlink="http://www.w3.org/1999/xlink" x="0" y="0" version="1.1" viewBox="0 0 64 64" style="enable-background:new 0 0 64 64" xml:space="preserve"><style type="text/css">.st0{fill:#e0995e}.st1{opacity:.2}.st2{fill:#231f20}.st3{fill:#4f5d73}.st4{fill:#fff}.st5{fill:#e0e0d1}</style><g id="Layer_1"><g><circle cx="32" cy="32" r="32" class="st0"/></g><g class="st1"><g><path d="M44,48c0,2.2-1.8,4-4,4H24c-2.2,0-4-1.8-4-4V16c0-2.2,1.8-4,4-4h16c2.2,0,4,1.8,4,4V48z" class="st2"/></g></g><g><g><path d="M24,48.5c-1.4,0-2.5-1.1-2.5-2.5V14c0-1.4,1.1-2.5,2.5-2.5h16c1.4,0,2.5,1.1,2.5,2.5v32 c0,1.4-1.1,2.5-2.5,2.5H24z" class="st3"/></g><g><path d="M40,13c0.6,0,1,0.4,1,1v32c0,0.6-0.4,1-1,1H24c-0.6,0-1-0.4-1-1V14c0-0.6,0.4-1,1-1H40 M40,10H24 c-2.2,0-4,1.8-4,4v32c0,2.2,1.8,4,4,4h16c2.2,0,4-1.8,4-4V14C44,11.8,42.2,10,40,10L40,10z" class="st4"/></g></g><g class="st1"><polygon points="26.2 11.5 42 49.6 42 11.5" class="st4"/></g><g><polygon points="40 50 24 50 20 42 44 42" class="st4"/></g><g><circle cx="32" cy="46" r="2" class="st5"/></g></g></svg>