<svg xmlns="http://www.w3.org/2000/svg" xmlns:xlink="http://www.w3.org/1999/xlink" x="0" y="0" version="1.1" viewBox="0 0 64 64" style="enable-background:new 0 0 64 64" xml:space="preserve"><style type="text/css">.st0{fill:#e0e0d1}.st1{opacity:.2}.st2{fill:#231f20}.st3{fill:#c75c5c}.st4{fill:#76c2af}.st5{fill:#4f5d73}</style><g id="Layer_1"><g><circle cx="32" cy="32" r="32" class="st0"/></g><g class="st1"><path d="M33.8,53.6c-1,0.6-2.5,0.6-3.5,0L12.7,43.1c-1-0.6-1-1.5,0-2.1l17.5-10.5c1-0.6,2.5-0.6,3.5,0l17.5,10.5 c1,0.6,1,1.5,0,2.1L33.8,53.6z" class="st2"/></g><g><path d="M33.8,51.6c-1,0.6-2.5,0.6-3.5,0L12.7,41.1c-1-0.6-1-1.5,0-2.1l17.5-10.5c1-0.6,2.5-0.6,3.5,0l17.5,10.5 c1,0.6,1,1.5,0,2.1L33.8,51.6z" class="st3"/></g><g class="st1"><path d="M33.8,45.6c-1,0.6-2.5,0.6-3.5,0L12.7,35.1c-1-0.6-1-1.5,0-2.1l17.5-10.5c1-0.6,2.5-0.6,3.5,0l17.5,10.5 c1,0.6,1,1.5,0,2.1L33.8,45.6z" class="st2"/></g><g><path d="M33.8,43.6c-1,0.6-2.5,0.6-3.5,0L12.7,33.1c-1-0.6-1-1.5,0-2.1l17.5-10.5c1-0.6,2.5-0.6,3.5,0l17.5,10.5 c1,0.6,1,1.5,0,2.1L33.8,43.6z" class="st4"/></g><g class="st1"><path d="M33.8,37.6c-1,0.6-2.5,0.6-3.5,0L12.7,27.1c-1-0.6-1-1.5,0-2.1l17.5-10.5c1-0.6,2.5-0.6,3.5,0l17.5,10.5 c1,0.6,1,1.5,0,2.1L33.8,37.6z" class="st2"/></g><g><path d="M33.8,35.6c-1,0.6-2.5,0.6-3.5,0L12.7,25.1c-1-0.6-1-1.5,0-2.1l17.5-10.5c1-0.6,2.5-0.6,3.5,0l17.5,10.5 c1,0.6,1,1.5,0,2.1L33.8,35.6z" class="st5"/></g></g></svg>