<svg xmlns="http://www.w3.org/2000/svg" xmlns:xlink="http://www.w3.org/1999/xlink" x="0" y="0" version="1.1" viewBox="0 0 64 64" style="enable-background:new 0 0 64 64" xml:space="preserve"><style type="text/css">.st0{fill:#4f5d73}.st1{opacity:.2}.st2{fill:#231f20}.st3{fill:#c75c5c}.st4{fill:#fff}</style><g id="Layer_1"><g><circle cx="32" cy="32" r="32" class="st0"/></g><g class="st1"><g><circle cx="32" cy="34" r="22" class="st2"/></g></g><g><g><path d="M32,52c-11,0-20-9-20-20s9-20,20-20s20,9,20,20S43,52,32,52z" class="st3"/></g><g><path d="M32,14c9.9,0,18,8.1,18,18s-8.1,18-18,18s-18-8.1-18-18S22.1,14,32,14 M32,10c-12.2,0-22,9.8-22,22 s9.8,22,22,22s22-9.8,22-22S44.2,10,32,10L32,10z" class="st4"/></g></g><g><path d="M32,22c5.5,0,10,4.5,10,10s-4.5,10-10,10s-10-4.5-10-10S26.5,22,32,22 M32,18c-7.7,0-14,6.3-14,14 s6.3,14,14,14s14-6.3,14-14S39.7,18,32,18L32,18z" class="st4"/></g><g><circle cx="32" cy="32" r="5" class="st4"/></g></g></svg>