<svg xmlns="http://www.w3.org/2000/svg" xmlns:xlink="http://www.w3.org/1999/xlink" x="0" y="0" version="1.1" viewBox="0 0 64 64" style="enable-background:new 0 0 64 64" xml:space="preserve"><style type="text/css">.st0{fill:#77b3d4}.st1{opacity:.2}.st2{fill:#231f20}.st3{fill:#4f5d73}.st4{fill:#f5cf87}.st5{fill:#c75c5c}.st6{fill:#76c2af}</style><g id="Layer_1"><g><circle cx="32" cy="32" r="32" class="st0"/></g><g class="st1"><path d="M44,54c0,1.7-1.3,3-3,3H23c-1.7,0-3-1.3-3-3V14c0-1.7,1.3-3,3-3h18c1.7,0,3,1.3,3,3V54z" class="st2"/></g><g><path d="M44,52c0,1.7-1.3,3-3,3H23c-1.7,0-3-1.3-3-3V12c0-1.7,1.3-3,3-3h18c1.7,0,3,1.3,3,3V52z" class="st3"/></g><g class="st1"><circle cx="32" cy="34" r="5" class="st2"/></g><g class="st1"><circle cx="32" cy="21" r="5" class="st2"/></g><g class="st1"><circle cx="32" cy="47" r="5" class="st2"/></g><g><circle cx="32" cy="32" r="5" class="st4"/></g><g><circle cx="32" cy="19" r="5" class="st5"/></g><g><circle cx="32" cy="45" r="5" class="st6"/></g></g></svg>