<svg xmlns="http://www.w3.org/2000/svg" xmlns:xlink="http://www.w3.org/1999/xlink" x="0" y="0" version="1.1" viewBox="0 0 64 64" style="enable-background:new 0 0 64 64" xml:space="preserve"><style type="text/css">.st0{fill:#76c2af}.st1{fill:#fff}.st2{fill:#c75c5c}.st3{opacity:.2}.st4{fill:#231f20}.st5{fill:#4f5d73}</style><g id="Layer_1"><g><circle cx="32" cy="32" r="32" class="st0"/></g><g><path d="M29.1,44.5c-0.5,0-0.9-0.2-1.2-0.6L17.6,29.3l-7.8,5.2c-0.7,0.5-1.6,0.3-2.1-0.4c-0.5-0.7-0.3-1.6,0.4-2.1 l9-6c0.7-0.5,1.6-0.3,2.1,0.4L29,40.2l10.7-19.8c0.2-0.4,0.7-0.7,1.2-0.8c0.5,0,1,0.2,1.3,0.6l13,16.9c0.5,0.7,0.4,1.6-0.3,2.1 c-0.7,0.5-1.6,0.4-2.1-0.3l-11.6-15L30.4,43.7C30.2,44.2,29.7,44.5,29.1,44.5C29.2,44.5,29.2,44.5,29.1,44.5z" class="st1"/></g><g><circle cx="41" cy="23.1" r="4.4" class="st2"/></g><g class="st3"><g><path d="M29.1,46.5c-0.5,0-0.9-0.2-1.2-0.6L17.6,31.3l-7.8,5.2c-0.7,0.5-1.6,0.3-2.1-0.4c-0.5-0.7-0.3-1.6,0.4-2.1 l9-6c0.7-0.5,1.6-0.3,2.1,0.4L29,42.2l10.7-19.8c0.2-0.4,0.7-0.7,1.2-0.8c0.5,0,1,0.2,1.3,0.6l13,16.9c0.5,0.7,0.4,1.6-0.3,2.1 c-0.7,0.5-1.6,0.4-2.1-0.3l-11.6-15L30.4,45.7C30.2,46.2,29.7,46.5,29.1,46.5C29.2,46.5,29.2,46.5,29.1,46.5z" class="st4"/></g></g><g><path d="M29.1,44.5c-0.5,0-0.9-0.2-1.2-0.6L17.6,29.3l-7.8,5.2c-0.7,0.5-1.6,0.3-2.1-0.4c-0.5-0.7-0.3-1.6,0.4-2.1 l9-6c0.7-0.5,1.6-0.3,2.1,0.4L29,40.2l10.7-19.8c0.2-0.4,0.7-0.7,1.2-0.8c0.5,0,1,0.2,1.3,0.6l13,16.9c0.5,0.7,0.4,1.6-0.3,2.1 c-0.7,0.5-1.6,0.4-2.1-0.3l-11.6-15L30.4,43.7C30.2,44.2,29.7,44.5,29.1,44.5C29.2,44.5,29.2,44.5,29.1,44.5z" class="st1"/></g><g class="st3"><circle cx="41" cy="25.1" r="4.4" class="st4"/></g><g><circle cx="41" cy="23.1" r="4.4" class="st5"/></g></g></svg>