<svg xmlns="http://www.w3.org/2000/svg" xmlns:xlink="http://www.w3.org/1999/xlink" id="Layer_1" x="0" y="0" version="1.1" viewBox="0 0 64 64" style="enable-background:new 0 0 64 64" xml:space="preserve"><style type="text/css">.st0{fill:#76c2af}.st1{opacity:.2}.st2{fill:#231f20}.st3{fill:#4f5d73}.st4{fill:#e0e0d1}.st5{fill:#fff}</style><circle cx="32" cy="32" r="32" class="st0"/><g class="st1"><path d="M32,22c-1.1,0-2-0.9-2-2v-4c0-1.1,0.9-2,2-2c1.1,0,2,0.9,2,2v4C34,21.1,33.1,22,32,22z" class="st2"/></g><g><path d="M32,20c-1.1,0-2-0.9-2-2v-4c0-1.1,0.9-2,2-2c1.1,0,2,0.9,2,2v4C34,19.1,33.1,20,32,20z" class="st3"/></g><g class="st1"><path d="M36,18h-8c-1.1,0-2-0.9-2-2s0.9-2,2-2h8c1.1,0,2,0.9,2,2S37.1,18,36,18z" class="st2"/></g><g><path d="M36,16h-8c-1.1,0-2-0.9-2-2s0.9-2,2-2h8c1.1,0,2,0.9,2,2S37.1,16,36,16z" class="st3"/></g><g class="st1"><path d="M32,54c-1.1,0-2-0.9-2-2V28c0-1.1,0.9-2,2-2c1.1,0,2,0.9,2,2v24C34,53.1,33.1,54,32,54z" class="st2"/></g><g><path d="M32,52c-1.1,0-2-0.9-2-2V26c0-1.1,0.9-2,2-2c1.1,0,2,0.9,2,2v24C34,51.1,33.1,52,32,52z" class="st4"/></g><g class="st1"><path d="M48,54c-0.6,0-1.3-0.3-1.7-0.9L32,31.6L17.7,53.1c-0.6,0.9-1.9,1.2-2.8,0.6c-0.9-0.6-1.2-1.9-0.6-2.8l16-24 c0.4-0.6,1-0.9,1.7-0.9c0.7,0,1.3,0.3,1.7,0.9l16,24c0.6,0.9,0.4,2.2-0.6,2.8C48.8,53.9,48.4,54,48,54z" class="st2"/></g><g><path d="M48,52c-0.6,0-1.3-0.3-1.7-0.9L32,29.6L17.7,51.1c-0.6,0.9-1.9,1.2-2.8,0.6c-0.9-0.6-1.2-1.9-0.6-2.8l16-24 c0.4-0.6,1-0.9,1.7-0.9c0.7,0,1.3,0.3,1.7,0.9l16,24c0.6,0.9,0.4,2.2-0.6,2.8C48.8,51.9,48.4,52,48,52z" class="st5"/></g></svg>