<svg xmlns="http://www.w3.org/2000/svg" xmlns:xlink="http://www.w3.org/1999/xlink" id="Layer_1" x="0" y="0" version="1.1" viewBox="0 0 64 64" style="enable-background:new 0 0 64 64" xml:space="preserve"><style type="text/css">.st0{fill:#f5cf87}.st1{opacity:.2;fill:#231f20}.st2{fill:#4f5d73}.st3{fill:#e0e0d1}.st4{opacity:.2}.st5{fill:#231f20}.st6{fill:#76c2af}.st7{opacity:.2;fill:#fff}</style><circle cx="32" cy="32" r="32" class="st0"/><path d="M52,49c0,1.1-0.9,2-2,2H14c-1.1,0-2-0.9-2-2V19c0-1.1,0.9-2,2-2h36c1.1,0,2,0.9,2,2V49z" class="st1"/><path d="M52,47c0,1.1-0.9,2-2,2H14c-1.1,0-2-0.9-2-2V17c0-1.1,0.9-2,2-2h36c1.1,0,2,0.9,2,2V47z" class="st2"/><path d="M48,37c0,1.1-0.9,2-2,2H18c-1.1,0-2-0.9-2-2V20.9c0-1.1,0.9-2,2-2h28c1.1,0,2,0.9,2,2V37z" class="st3"/><g class="st4"><path d="M46,18.9H18c-1.1,0-2,0.9-2,2V22c0-1.1,0.9-2,2-2h28c1.1,0,2,0.9,2,2v-1.1C48,19.8,47.1,18.9,46,18.9z" class="st5"/></g><path d="M20,45c0,1.1-0.9,2-2,2l0,0c-1.1,0-2-0.9-2-2l0,0c0-1.1,0.9-2,2-2l0,0C19.1,43,20,43.9,20,45L20,45z" class="st1"/><path d="M48,45c0,1.1-0.9,2-2,2l0,0c-1.1,0-2-0.9-2-2l0,0c0-1.1,0.9-2,2-2l0,0C47.1,43,48,43.9,48,45L48,45z" class="st1"/><path d="M20,44c0,1.1-0.9,2-2,2l0,0c-1.1,0-2-0.9-2-2l0,0c0-1.1,0.9-2,2-2l0,0C19.1,42,20,42.9,20,44L20,44z" class="st6"/><path d="M48,44c0,1.1-0.9,2-2,2l0,0c-1.1,0-2-0.9-2-2l0,0c0-1.1,0.9-2,2-2l0,0C47.1,42,48,42.9,48,44L48,44z" class="st6"/><path d="M25,45c0,0.6-0.4,1-1,1l0,0c-0.6,0-1-0.4-1-1v-2c0-0.6,0.4-1,1-1l0,0c0.6,0,1,0.4,1,1V45z" class="st0"/><path d="M29,45c0,0.6-0.4,1-1,1l0,0c-0.6,0-1-0.4-1-1v-2c0-0.6,0.4-1,1-1l0,0c0.6,0,1,0.4,1,1V45z" class="st0"/><path d="M37,45c0,0.6-0.4,1-1,1l0,0c-0.6,0-1-0.4-1-1v-2c0-0.6,0.4-1,1-1l0,0c0.6,0,1,0.4,1,1V45z" class="st0"/><path d="M41,45c0,0.6-0.4,1-1,1l0,0c-0.6,0-1-0.4-1-1v-2c0-0.6,0.4-1,1-1l0,0c0.6,0,1,0.4,1,1V45z" class="st0"/><path d="M33,45c0,0.6-0.4,1-1,1l0,0c-0.6,0-1-0.4-1-1v-2c0-0.6,0.4-1,1-1l0,0c0.6,0,1,0.4,1,1V45z" class="st0"/><g class="st4"><path d="M24,42c-0.6,0-1,0.4-1,1v1c0-0.6,0.4-1,1-1c0.6,0,1,0.4,1,1v-1C25,42.4,24.6,42,24,42z" class="st5"/><path d="M28,42c-0.6,0-1,0.4-1,1v1c0-0.6,0.4-1,1-1c0.6,0,1,0.4,1,1v-1C29,42.4,28.6,42,28,42z" class="st5"/><path d="M36,42c-0.6,0-1,0.4-1,1v1c0-0.6,0.4-1,1-1c0.6,0,1,0.4,1,1v-1C37,42.4,36.6,42,36,42z" class="st5"/><path d="M40,42c-0.6,0-1,0.4-1,1v1c0-0.6,0.4-1,1-1c0.6,0,1,0.4,1,1v-1C41,42.4,40.6,42,40,42z" class="st5"/><path d="M32,42c-0.6,0-1,0.4-1,1v1c0-0.6,0.4-1,1-1c0.6,0,1,0.4,1,1v-1C33,42.4,32.6,42,32,42z" class="st5"/></g><g><path d="M48,37V20.9c0-1.1-0.9-2-2-2H25.5L37.1,39H46C47.1,39,48,38.1,48,37z" class="st7"/></g></svg>