<svg xmlns="http://www.w3.org/2000/svg" xmlns:xlink="http://www.w3.org/1999/xlink" id="Layer_1" x="0" y="0" version="1.1" viewBox="0 0 64 64" style="enable-background:new 0 0 64 64" xml:space="preserve"><style type="text/css">.st0{fill:#77b3d4}.st1{fill:#231f20}.st1,.st2{opacity:.2}.st3{fill:#231f20}.st4{fill:none;stroke:#fff;stroke-width:3;stroke-linecap:round;stroke-linejoin:round;stroke-miterlimit:10}</style><circle cx="32" cy="32" r="32" class="st0"/><path d="M35.4,46.5l-12-32c-0.2-0.6-0.8-1-1.4-1s-1.2,0.4-1.4,1l-12,32c-0.3,0.8,0.1,1.6,0.9,1.9	c0.8,0.3,1.6-0.1,1.9-0.9L16.1,35h11.8l4.7,12.5c0.2,0.6,0.8,1,1.4,1c0.2,0,0.4,0,0.5-0.1C35.3,48.1,35.7,47.2,35.4,46.5z M17.2,32	L22,19.3L26.8,32H17.2z" class="st1"/><g class="st2"><path d="M53,48.5h-8c-4.7,0-8.5-3.8-8.5-8.5c0-4.6,3.7-8,8.5-8h6.5v-1c0-1.6-0.5-2.7-1.5-3.5c-2.5-2-7.9-1.4-9.7-1 c-0.8,0.2-1.6-0.3-1.8-1.1c-0.2-0.8,0.3-1.6,1.1-1.8c0.3-0.1,8-1.8,12.2,1.6c1.7,1.4,2.6,3.4,2.6,5.9v16 C54.5,47.8,53.8,48.5,53,48.5z M45,35c-3.2,0-5.5,2.1-5.5,5c0,3,2.5,5.5,5.5,5.5h6.5V35H45z" class="st3"/></g><polyline points="10 45 22 13 34 45" class="st4"/><line x1="16" x2="28" y1="31.5" y2="31.5" class="st4"/><path d="M40,23c0,0,13-2.9,13,6c0,10,0,16,0,16h-8c-3.9,0-7-3.1-7-7l0,0c0-3.9,3.1-6.5,7-6.5h7" class="st4"/></svg>