<svg xmlns="http://www.w3.org/2000/svg" xmlns:xlink="http://www.w3.org/1999/xlink" id="Layer_1" x="0" y="0" version="1.1" viewBox="0 0 64 64" style="enable-background:new 0 0 64 64" xml:space="preserve"><style type="text/css">.st0{display:none;fill:#2b3544}.st1{fill:#4f5d73}.st2{opacity:.2;fill:#231f20}.st3{fill:#e0e0d1}.st4{fill:#77b3d4}</style><rect width="608" height="1984" x="-307" y="-1597" class="st0"/><circle cx="32" cy="32" r="32" class="st1"/><path d="M56,37c0,2-10.7,8-24,8S8,39,8,37c0-1.8,10.7-8,24-8S56,35.1,56,37z" class="st2"/><path d="M56,35c0,2-10.7,8-24,8S8,37,8,35c0-1.8,10.7-8,24-8S56,33.1,56,35z" class="st3"/><path d="M41.5,30.5c0,5.2-4.2,5.5-9.5,5.5s-9.5-0.3-9.5-5.5S26.8,21,32,21S41.5,25.2,41.5,30.5z" class="st2"/><path d="M41.5,28.5c0,5.2-4.2,5.5-9.5,5.5s-9.5-0.3-9.5-5.5S26.8,19,32,19S41.5,23.2,41.5,28.5z" class="st4"/></svg>