<svg xmlns="http://www.w3.org/2000/svg" xmlns:xlink="http://www.w3.org/1999/xlink" x="0" y="0" version="1.1" viewBox="0 0 64 64" style="enable-background:new 0 0 64 64" xml:space="preserve"><style type="text/css">.st0{fill:#77b3d4}.st1{opacity:.2}.st2{fill:#231f20}.st3{fill:#4f5d73}.st4{fill:#c75c5c}.st5{fill:#fff}</style><g id="Layer_1"><g><circle cx="32" cy="32" r="32" class="st0"/></g><g class="st1"><g><path d="M26,56c-4.4,0-8-3.6-8-8c0-1.1,0.9-2,2-2s2,0.9,2,2c0,2.2,1.8,4,4,4s4-1.8,4-4V12c0-1.1,0.9-2,2-2s2,0.9,2,2 v36C34,52.4,30.4,56,26,56z" class="st2"/></g></g><g><path d="M26,54c-4.4,0-8-3.6-8-8c0-1.1,0.9-2,2-2s2,0.9,2,2c0,2.2,1.8,4,4,4s4-1.8,4-4V10c0-1.1,0.9-2,2-2s2,0.9,2,2 v36C34,50.4,30.4,54,26,54z" class="st3"/></g><g><path d="M32,10" class="st4"/></g><g class="st1"><path d="M32,12C18.7,12,8,22.7,8,36c5-3.4,10.9,0,10.9,0c0-1.2,5.9-3.3,13.1-3.3s13.1,2.1,13.1,3.3 c0,0,5.8-3.4,10.9,0C56,22.7,45.3,12,32,12z" class="st2"/></g><g><g><path d="M18.9,34c0,0,0.3-17.7,13.1-24C18.7,10,8,20.7,8,34C13,30.6,18.9,34,18.9,34z" class="st4"/></g><g><path d="M45.1,34c0,0,5.8-3.4,10.9,0c0-13.3-10.7-24-24-24C44.8,16.3,45.1,34,45.1,34z" class="st4"/></g><g><path d="M18.9,34c0-1.2,5.9-3.3,13.1-3.3s13.1,2.1,13.1,3.3c0,0-0.3-17.7-13.1-24C19.2,16.3,18.9,34,18.9,34z" class="st5"/></g></g><g><path d="M32,13c-1.1,0-2-0.9-2-2v-1c0-1.1,0.9-2,2-2s2,0.9,2,2v1C34,12.1,33.1,13,32,13z" class="st3"/></g></g></svg>