<svg xmlns="http://www.w3.org/2000/svg" xmlns:xlink="http://www.w3.org/1999/xlink" id="Layer_1" x="0" y="0" version="1.1" viewBox="0 0 64 64" style="enable-background:new 0 0 64 64" xml:space="preserve"><style type="text/css">.st0{display:none;fill:#2b3544}.st1{fill:#76c2af}.st2{opacity:.2}.st3{fill:#231f20}.st4{fill:#4f5d73}.st5{stroke:#e0e0d1}.st5,.st6,.st7{fill:none;stroke-width:4;stroke-linecap:round;stroke-miterlimit:10}.st6{stroke:#fff}.st7{stroke:#4f5d73}</style><rect width="608" height="1984" x="-223" y="-1513" class="st0"/><circle cx="32" cy="31.8" r="32" class="st1"/><g class="st2"><path d="M32,33c5,0,9,4,9,9s-4,9-9,9s-9-4-9-9S27,33,32,33 M32,29c-7.2,0-13,5.8-13,13s5.8,13,13,13s13-5.8,13-13 S39.2,29,32,29L32,29z" class="st3"/></g><g class="st2"><path d="M28,46.7c-0.6,0-1.3-0.3-1.7-0.9c-0.6-0.9-0.4-2.2,0.6-2.8l8-5.3c0.9-0.6,2.2-0.4,2.8,0.6 c0.6,0.9,0.4,2.2-0.6,2.8l-8,5.3C28.8,46.6,28.4,46.7,28,46.7z" class="st3"/></g><g><path d="M32,31c5,0,9,4,9,9s-4,9-9,9s-9-4-9-9S27,31,32,31 M32,27c-7.2,0-13,5.8-13,13s5.8,13,13,13s13-5.8,13-13 S39.2,27,32,27L32,27z" class="st4"/></g><line x1="32" x2="32" y1="40" y2="14.4" class="st5"/><line x1="28" x2="36" y1="42.7" y2="37.3" class="st6"/><g class="st2"><path d="M31.4,17.5c-2.8,0-5.2-1-6.5-1.8c-0.9-0.6-1.2-1.9-0.6-2.8c0.6-0.9,1.8-1.2,2.8-0.6c0.2,0.1,4.9,3.1,9.6-0.9 c0.8-0.7,2.1-0.6,2.8,0.3c0.7,0.8,0.6,2.1-0.3,2.8C36.6,16.8,33.8,17.5,31.4,17.5z" class="st3"/></g><path d="M26,12c0,0,6,4,12-1" class="st7"/></svg>