<svg xmlns="http://www.w3.org/2000/svg" xmlns:xlink="http://www.w3.org/1999/xlink" id="Layer_1" x="0" y="0" version="1.1" viewBox="0 0 64 64" style="enable-background:new 0 0 64 64" xml:space="preserve"><style type="text/css">.st0{fill:#76c2af}.st1{opacity:.2;fill:#231f20}.st2{fill:#e0e0d1}.st3{fill:#fff}</style><circle cx="32" cy="32" r="32" class="st0"/><path d="M55,34c-1.1,0-4,2-4,2h-4v-4c0-1.1-0.9-2-2-2H15c-1.1,0-2,0.9-2,2v2h-2c-1.1,0-2,0.9-2,2v6c0,1.1,0.9,2,2,2h2v6	c0,1.1,0.9,2,2,2h30c1.1,0,2-0.9,2-2v-4h4c0,0,2.9,2,4,2c1.1,0,2-0.9,2-2V36C57,34.9,56.1,34,55,34z" class="st1"/><path d="M47,48c0,1.1-0.9,2-2,2H15c-1.1,0-2-0.9-2-2V32c0-1.1,0.9-2,2-2h30c1.1,0,2,0.9,2,2V48z" class="st2"/><path d="M53,42c0,1.1-0.9,2-2,2H24c-1.1,0-2-0.9-2-2v-6c0-1.1,0.9-2,2-2h27c1.1,0,2,0.9,2,2V42z" class="st2"/><path d="M40,40c0,1.1-0.9,2-2,2H11c-1.1,0-2-0.9-2-2v-6c0-1.1,0.9-2,2-2h27c1.1,0,2,0.9,2,2V40z" class="st2"/><path d="M57,44c0,1.1-0.9,2-2,2l0,0c-1.1,0-4-2-4-2V34c0,0,2.9-2,4-2l0,0c1.1,0,2,0.9,2,2V44z" class="st2"/><circle cx="21" cy="22" r="10" class="st1"/><circle cx="39" cy="24" r="8" class="st1"/><circle cx="21" cy="20" r="10" class="st3"/><circle cx="39" cy="22" r="8" class="st3"/></svg>