<svg xmlns="http://www.w3.org/2000/svg" xmlns:xlink="http://www.w3.org/1999/xlink" x="0" y="0" version="1.1" viewBox="0 0 64 64" style="enable-background:new 0 0 64 64" xml:space="preserve"><style type="text/css">.st0{fill:#4f5d73}.st1{opacity:.2}.st2{fill:#231f20}.st3{fill:#e0995e}.st4{fill:#fff}</style><g id="Layer_1"><g><circle cx="32" cy="32" r="32" class="st0"/></g><g class="st1"><circle cx="22" cy="24" r="10" class="st2"/></g><g><circle cx="22" cy="22" r="10" class="st3"/></g><g class="st1"><path d="M48.7,36c0-7.7-6.6-14-14.7-14c-6.9,0-12.6,4.5-14.2,10.6c-4.4,0.6-7.8,4.3-7.8,8.6c0,4.8,4.1,8.8,9.2,8.8 h27.5c4.1,0,7.3-3.1,7.3-7S52.7,36,48.7,36z" class="st2"/></g><g><g class="st1"><path d="M32,22c0-1-0.2-2-0.4-2.9c-6.2,0.6-11.3,4.9-12.8,10.5c-0.8,0.1-1.6,0.4-2.4,0.7C18,31.4,19.9,32,22,32 C27.5,32,32,27.5,32,22z" class="st2"/></g></g><g><path d="M48.7,34c0-7.7-6.6-14-14.7-14c-6.9,0-12.6,4.5-14.2,10.6c-4.4,0.6-7.8,4.3-7.8,8.6c0,4.8,4.1,8.8,9.2,8.8 h27.5c4.1,0,7.3-3.1,7.3-7S52.7,34,48.7,34z" class="st4"/></g></g></svg>