<svg xmlns="http://www.w3.org/2000/svg" xmlns:xlink="http://www.w3.org/1999/xlink" id="Layer_1" x="0" y="0" version="1.1" viewBox="0 0 64 64" style="enable-background:new 0 0 64 64" xml:space="preserve"><style type="text/css">.st0{display:none;fill:#2b3544}.st1{fill:#4f5d73}.st2{opacity:.2}.st3,.st4{fill:#231f20}.st4{opacity:.2}.st5{fill:none;stroke:#e0e0d1;stroke-width:3;stroke-linecap:round;stroke-miterlimit:10}.st6{fill:#e0995e}.st7{fill:#fff}</style><rect width="608" height="1984" x="-475" y="-1597" class="st0"/><circle cx="32" cy="32" r="32" class="st1"/><g class="st2"><path d="M21.5,57.5c-0.8,0-1.5-0.7-1.5-1.5V16c0-0.8,0.7-1.5,1.5-1.5S23,15.2,23,16v40C23,56.8,22.3,57.5,21.5,57.5z" class="st3"/></g><path d="M49.6,23.1L44,21.9v0l-2.4-0.5l-3.8-0.8l-2.2-0.4l-6-1.2L26,18.3V22v20v3.7l3.6-0.7l6-1.2l2.4-0.5v0l3.6-0.7	l2.4-0.5v0l5.6-1.1C51,40.7,52,39.4,52,38V26C52,24.6,51,23.3,49.6,23.1z" class="st4"/><line x1="21.5" x2="21.5" y1="54" y2="14" class="st5"/><g><g><polygon points="27.5 18.2 36.5 20 36.5 40 27.5 41.8" class="st6"/><path d="M29,20l6,1.2v17.6L29,40V20 M26,16.3V20v20v3.7l3.6-0.7l6-1.2l2.4-0.5v-2.5V21.2v-2.5l-2.4-0.5l-6-1.2 L26,16.3L26,16.3z" class="st6"/></g><g><path d="M43,38.7c-0.3,0-0.7-0.1-1-0.3c-0.3-0.3-0.5-0.7-0.5-1.2V22.8c0-0.4,0.2-0.9,0.5-1.2c0.3-0.2,0.6-0.3,1-0.3 c0.1,0,0.2,0,0.3,0l6,1.2c0.7,0.1,1.2,0.8,1.2,1.5v12c0,0.7-0.5,1.3-1.2,1.5l-6,1.2C43.2,38.7,43.1,38.7,43,38.7z" class="st6"/><path d="M43,22.8l6,1.2v12l-6,1.2V22.8 M43,19.8c-0.7,0-1.4,0.2-1.9,0.7C40.4,21,40,21.9,40,22.8v14.4 c0,0.9,0.4,1.8,1.1,2.3c0.5,0.4,1.2,0.7,1.9,0.7c0.2,0,0.4,0,0.6-0.1l6-1.2C51,38.7,52,37.4,52,36V24c0-1.4-1-2.7-2.4-2.9l-6-1.2 C43.4,19.8,43.2,19.8,43,19.8L43,19.8z" class="st6"/></g><g><g><polygon points="35.5 19.8 42.5 21.2 42.5 38.8 35.5 40.2" class="st7"/><path d="M37,21.6l4,0.8v15.2l-4,0.8V21.6 M34,17.9v3.7v16.8v3.7l3.6-0.7l4-0.8l2.4-0.5v-2.5V22.4v-2.5l-2.4-0.5 l-4-0.8L34,17.9L34,17.9z" class="st7"/></g></g></g></svg>